<?xml version="1.0" encoding="UTF-8" standalone="no"?>
<!-- Created with Inkscape (http://www.inkscape.org/) -->

<svg
   width="285.1637mm"
   height="81.710754mm"
   viewBox="0 0 285.1637 81.710755"
   version="1.1"
   id="svg5"
   sodipodi:docname="elucidate_dark.svg"
   inkscape:version="1.1.2 (0a00cf5339, 2022-02-04)"
   xmlns:inkscape="http://www.inkscape.org/namespaces/inkscape"
   xmlns:sodipodi="http://sodipodi.sourceforge.net/DTD/sodipodi-0.dtd"
   xmlns="http://www.w3.org/2000/svg"
   xmlns:svg="http://www.w3.org/2000/svg">
  <sodipodi:namedview
     id="namedview1685"
     pagecolor="#505050"
     bordercolor="#eeeeee"
     borderopacity="1"
     inkscape:pageshadow="0"
     inkscape:pageopacity="0"
     inkscape:pagecheckerboard="0"
     inkscape:document-units="mm"
     showgrid="false"
     inkscape:zoom="1.2098899"
     inkscape:cx="538.89202"
     inkscape:cy="154.14626"
     inkscape:window-width="1850"
     inkscape:window-height="1016"
     inkscape:window-x="70"
     inkscape:window-y="27"
     inkscape:window-maximized="1"
     inkscape:current-layer="layer1" />
  <defs
     id="defs2">
    <g
       id="g8997">
      <symbol
         overflow="visible"
         id="symbol9833">
        <path
           style="stroke:none"
           d=""
           id="path1015" />
      </symbol>
      <symbol
         overflow="visible"
         id="symbol4470">
        <path
           style="stroke:none"
           d="m 1.859375,-2.296875 c 0.296875,0 1.03125,-0.03125 1.53125,-0.234375 0.703125,-0.296875 0.75,-0.890625 0.75,-1.03125 0,-0.4375 -0.375,-0.84375 -1.0625,-0.84375 -1.109375,0 -2.625,0.96875 -2.625,2.71875 0,1.015625 0.59375,1.796875 1.578125,1.796875 1.421875,0 2.25,-1.0625 2.25,-1.171875 0,-0.0625 -0.046875,-0.140625 -0.109375,-0.140625 -0.0625,0 -0.078125,0.03125 -0.140625,0.109375 -0.78125,0.984375 -1.875,0.984375 -1.984375,0.984375 -0.78125,0 -0.875,-0.84375 -0.875,-1.15625 0,-0.125 0.015625,-0.421875 0.15625,-1.03125 z m -0.46875,-0.21875 C 1.78125,-4.03125 2.8125,-4.1875 3.078125,-4.1875 c 0.453125,0 0.734375,0.296875 0.734375,0.625 0,1.046875 -1.59375,1.046875 -2.015625,1.046875 z m 0,0"
           id="path1346" />
      </symbol>
      <symbol
         overflow="visible"
         id="symbol7656">
        <path
           style="stroke:none"
           d=""
           id="path9888" />
      </symbol>
      <symbol
         overflow="visible"
         id="symbol5022">
        <path
           style="stroke:none"
           d="m 2.265625,-4.359375 c 0,-0.109375 -0.09375,-0.265625 -0.28125,-0.265625 -0.1875,0 -0.390625,0.1875 -0.390625,0.390625 0,0.109375 0.078125,0.265625 0.28125,0.265625 0.1875,0 0.390625,-0.203125 0.390625,-0.390625 z M 0.84375,-0.8125 c -0.03125,0.09375 -0.0625,0.171875 -0.0625,0.296875 0,0.328125 0.265625,0.578125 0.65625,0.578125 0.6875,0 1,-0.953125 1,-1.0625 0,-0.09375 -0.09375,-0.09375 -0.109375,-0.09375 -0.09375,0 -0.109375,0.046875 -0.140625,0.125 -0.15625,0.5625 -0.453125,0.84375 -0.734375,0.84375 -0.140625,0 -0.171875,-0.09375 -0.171875,-0.25 0,-0.15625 0.046875,-0.28125 0.109375,-0.4375 C 1.46875,-1 1.546875,-1.1875 1.609375,-1.375 1.671875,-1.546875 1.9375,-2.171875 1.953125,-2.265625 1.984375,-2.328125 2,-2.40625 2,-2.484375 2,-2.8125 1.71875,-3.078125 1.34375,-3.078125 0.640625,-3.078125 0.328125,-2.125 0.328125,-2 c 0,0.078125 0.09375,0.078125 0.125,0.078125 0.09375,0 0.09375,-0.03125 0.125,-0.109375 C 0.75,-2.625 1.0625,-2.875 1.3125,-2.875 c 0.109375,0 0.171875,0.046875 0.171875,0.234375 0,0.171875 -0.03125,0.265625 -0.203125,0.703125 z m 0,0"
           id="path4389" />
      </symbol>
      <symbol
         overflow="visible"
         id="symbol3688">
        <path
           style="stroke:none"
           d="M 2.171875,-2.53125 H 3 c -0.109375,0.421875 -0.265625,1.046875 -0.265625,1.609375 0,0.28125 0.046875,0.46875 0.078125,0.609375 0.109375,0.359375 0.203125,0.375 0.3125,0.375 0.171875,0 0.328125,-0.140625 0.328125,-0.3125 0,-0.046875 -0.015625,-0.078125 -0.046875,-0.140625 C 3.265625,-0.65625 3.140625,-1.046875 3.140625,-1.625 c 0,-0.125 0,-0.40625 0.09375,-0.90625 h 0.875 c 0.125,0 0.1875,0 0.265625,-0.046875 0.09375,-0.078125 0.109375,-0.1875 0.109375,-0.21875 C 4.484375,-3 4.3125,-3 4.1875,-3 h -2.625 c -0.28125,0 -0.484375,0.0625 -0.796875,0.359375 -0.1875,0.15625 -0.453125,0.53125 -0.453125,0.59375 0,0.078125 0.09375,0.078125 0.125,0.078125 0.078125,0 0.078125,-0.015625 0.125,-0.078125 C 0.90625,-2.53125 1.34375,-2.53125 1.5,-2.53125 h 0.421875 c -0.21875,0.765625 -0.59375,1.59375 -0.796875,2.015625 -0.046875,0.078125 -0.109375,0.234375 -0.140625,0.25 0,0.03125 -0.015625,0.0625 -0.015625,0.109375 0,0.109375 0.078125,0.21875 0.25,0.21875 0.265625,0 0.34375,-0.3125 0.515625,-0.9375 z m 0,0"
           id="path2063" />
      </symbol>
      <symbol
         overflow="visible"
         id="symbol9811">
        <path
           style="stroke:none"
           d=""
           id="path6906" />
      </symbol>
      <symbol
         overflow="visible"
         id="symbol2171">
        <path
           style="stroke:none"
           d="m 4.078125,-2.296875 h 2.78125 C 7,-2.296875 7.1875,-2.296875 7.1875,-2.5 7.1875,-2.6875 7,-2.6875 6.859375,-2.6875 h -2.78125 v -2.796875 c 0,-0.140625 0,-0.328125 -0.203125,-0.328125 -0.203125,0 -0.203125,0.1875 -0.203125,0.328125 V -2.6875 h -2.78125 c -0.140625,0 -0.328125,0 -0.328125,0.1875 0,0.203125 0.1875,0.203125 0.328125,0.203125 h 2.78125 V 0.5 c 0,0.140625 0,0.328125 0.203125,0.328125 0.203125,0 0.203125,-0.1875 0.203125,-0.328125 z m 0,0"
           id="path6360" />
      </symbol>
      <symbol
         overflow="visible"
         id="symbol6168">
        <path
           style="stroke:none"
           d="m 2.9375,-6.375 c 0,-0.25 0,-0.265625 -0.234375,-0.265625 C 2.078125,-6 1.203125,-6 0.890625,-6 v 0.3125 c 0.203125,0 0.78125,0 1.296875,-0.265625 v 5.171875 c 0,0.359375 -0.03125,0.46875 -0.921875,0.46875 h -0.3125 V 0 c 0.34375,-0.03125 1.203125,-0.03125 1.609375,-0.03125 0.390625,0 1.265625,0 1.609375,0.03125 v -0.3125 h -0.3125 c -0.90625,0 -0.921875,-0.109375 -0.921875,-0.46875 z m 0,0"
           id="path43" />
      </symbol>
      <symbol
         overflow="visible"
         id="symbol1781">
        <path
           style="stroke:none"
           d="m 6.84375,-3.265625 c 0.15625,0 0.34375,0 0.34375,-0.1875 C 7.1875,-3.65625 7,-3.65625 6.859375,-3.65625 h -5.96875 c -0.140625,0 -0.328125,0 -0.328125,0.203125 0,0.1875 0.1875,0.1875 0.328125,0.1875 z m 0.015625,1.9375 c 0.140625,0 0.328125,0 0.328125,-0.203125 0,-0.1875 -0.1875,-0.1875 -0.34375,-0.1875 H 0.890625 c -0.140625,0 -0.328125,0 -0.328125,0.1875 0,0.203125 0.1875,0.203125 0.328125,0.203125 z m 0,0"
           id="path3640" />
      </symbol>
      <symbol
         overflow="visible"
         id="symbol1745">
        <path
           style="stroke:none"
           d="m 4.578125,-3.1875 c 0,-0.796875 -0.046875,-1.59375 -0.390625,-2.328125 -0.453125,-0.96875 -1.28125,-1.125 -1.6875,-1.125 -0.609375,0 -1.328125,0.265625 -1.75,1.1875 -0.3125,0.6875 -0.359375,1.46875 -0.359375,2.265625 0,0.75 0.03125,1.640625 0.453125,2.40625 0.421875,0.796875 1.15625,1 1.640625,1 0.53125,0 1.296875,-0.203125 1.734375,-1.15625 0.3125,-0.6875 0.359375,-1.46875 0.359375,-2.25 z M 2.484375,0 C 2.09375,0 1.5,-0.25 1.328125,-1.203125 1.21875,-1.796875 1.21875,-2.71875 1.21875,-3.3125 c 0,-0.640625 0,-1.296875 0.078125,-1.828125 0.1875,-1.1875 0.9375,-1.28125 1.1875,-1.28125 0.328125,0 0.984375,0.1875 1.171875,1.171875 0.109375,0.5625 0.109375,1.3125 0.109375,1.9375 0,0.75 0,1.421875 -0.109375,2.0625 C 3.5,-0.296875 2.9375,0 2.484375,0 Z m 0,0"
           id="path7253" />
      </symbol>
    </g>
    <g
       id="g8923">
      <symbol
         overflow="visible"
         id="symbol180">
        <path
           style="stroke:none"
           d=""
           id="path4858" />
      </symbol>
      <symbol
         overflow="visible"
         id="symbol8281">
        <path
           style="stroke:none"
           d="m 1.859375,-2.296875 c 0.296875,0 1.03125,-0.03125 1.53125,-0.234375 0.703125,-0.296875 0.75,-0.890625 0.75,-1.03125 0,-0.4375 -0.375,-0.84375 -1.0625,-0.84375 -1.109375,0 -2.625,0.96875 -2.625,2.71875 0,1.015625 0.59375,1.796875 1.578125,1.796875 1.421875,0 2.25,-1.0625 2.25,-1.171875 0,-0.0625 -0.046875,-0.140625 -0.109375,-0.140625 -0.0625,0 -0.078125,0.03125 -0.140625,0.109375 -0.78125,0.984375 -1.875,0.984375 -1.984375,0.984375 -0.78125,0 -0.875,-0.84375 -0.875,-1.15625 0,-0.125 0.015625,-0.421875 0.15625,-1.03125 z m -0.46875,-0.21875 C 1.78125,-4.03125 2.8125,-4.1875 3.078125,-4.1875 c 0.453125,0 0.734375,0.296875 0.734375,0.625 0,1.046875 -1.59375,1.046875 -2.015625,1.046875 z m 0,0"
           id="path7479" />
      </symbol>
      <symbol
         overflow="visible"
         id="symbol4035">
        <path
           style="stroke:none"
           d=""
           id="path9293" />
      </symbol>
      <symbol
         overflow="visible"
         id="symbol9580">
        <path
           style="stroke:none"
           d="m 2.265625,-4.359375 c 0,-0.109375 -0.09375,-0.265625 -0.28125,-0.265625 -0.1875,0 -0.390625,0.1875 -0.390625,0.390625 0,0.109375 0.078125,0.265625 0.28125,0.265625 0.1875,0 0.390625,-0.203125 0.390625,-0.390625 z M 0.84375,-0.8125 c -0.03125,0.09375 -0.0625,0.171875 -0.0625,0.296875 0,0.328125 0.265625,0.578125 0.65625,0.578125 0.6875,0 1,-0.953125 1,-1.0625 0,-0.09375 -0.09375,-0.09375 -0.109375,-0.09375 -0.09375,0 -0.109375,0.046875 -0.140625,0.125 -0.15625,0.5625 -0.453125,0.84375 -0.734375,0.84375 -0.140625,0 -0.171875,-0.09375 -0.171875,-0.25 0,-0.15625 0.046875,-0.28125 0.109375,-0.4375 C 1.46875,-1 1.546875,-1.1875 1.609375,-1.375 1.671875,-1.546875 1.9375,-2.171875 1.953125,-2.265625 1.984375,-2.328125 2,-2.40625 2,-2.484375 2,-2.8125 1.71875,-3.078125 1.34375,-3.078125 0.640625,-3.078125 0.328125,-2.125 0.328125,-2 c 0,0.078125 0.09375,0.078125 0.125,0.078125 0.09375,0 0.09375,-0.03125 0.125,-0.109375 C 0.75,-2.625 1.0625,-2.875 1.3125,-2.875 c 0.109375,0 0.171875,0.046875 0.171875,0.234375 0,0.171875 -0.03125,0.265625 -0.203125,0.703125 z m 0,0"
           id="path5976" />
      </symbol>
      <symbol
         overflow="visible"
         id="symbol539">
        <path
           style="stroke:none"
           d="M 2.171875,-2.53125 H 3 c -0.109375,0.421875 -0.265625,1.046875 -0.265625,1.609375 0,0.28125 0.046875,0.46875 0.078125,0.609375 0.109375,0.359375 0.203125,0.375 0.3125,0.375 0.171875,0 0.328125,-0.140625 0.328125,-0.3125 0,-0.046875 -0.015625,-0.078125 -0.046875,-0.140625 C 3.265625,-0.65625 3.140625,-1.046875 3.140625,-1.625 c 0,-0.125 0,-0.40625 0.09375,-0.90625 h 0.875 c 0.125,0 0.1875,0 0.265625,-0.046875 0.09375,-0.078125 0.109375,-0.1875 0.109375,-0.21875 C 4.484375,-3 4.3125,-3 4.1875,-3 h -2.625 c -0.28125,0 -0.484375,0.0625 -0.796875,0.359375 -0.1875,0.15625 -0.453125,0.53125 -0.453125,0.59375 0,0.078125 0.09375,0.078125 0.125,0.078125 0.078125,0 0.078125,-0.015625 0.125,-0.078125 C 0.90625,-2.53125 1.34375,-2.53125 1.5,-2.53125 h 0.421875 c -0.21875,0.765625 -0.59375,1.59375 -0.796875,2.015625 -0.046875,0.078125 -0.109375,0.234375 -0.140625,0.25 0,0.03125 -0.015625,0.0625 -0.015625,0.109375 0,0.109375 0.078125,0.21875 0.25,0.21875 0.265625,0 0.34375,-0.3125 0.515625,-0.9375 z m 0,0"
           id="path3802" />
      </symbol>
      <symbol
         overflow="visible"
         id="symbol8229">
        <path
           style="stroke:none"
           d=""
           id="path8281" />
      </symbol>
      <symbol
         overflow="visible"
         id="symbol2125">
        <path
           style="stroke:none"
           d="m 4.078125,-2.296875 h 2.78125 C 7,-2.296875 7.1875,-2.296875 7.1875,-2.5 7.1875,-2.6875 7,-2.6875 6.859375,-2.6875 h -2.78125 v -2.796875 c 0,-0.140625 0,-0.328125 -0.203125,-0.328125 -0.203125,0 -0.203125,0.1875 -0.203125,0.328125 V -2.6875 h -2.78125 c -0.140625,0 -0.328125,0 -0.328125,0.1875 0,0.203125 0.1875,0.203125 0.328125,0.203125 h 2.78125 V 0.5 c 0,0.140625 0,0.328125 0.203125,0.328125 0.203125,0 0.203125,-0.1875 0.203125,-0.328125 z m 0,0"
           id="path111" />
      </symbol>
      <symbol
         overflow="visible"
         id="symbol6392">
        <path
           style="stroke:none"
           d="m 2.9375,-6.375 c 0,-0.25 0,-0.265625 -0.234375,-0.265625 C 2.078125,-6 1.203125,-6 0.890625,-6 v 0.3125 c 0.203125,0 0.78125,0 1.296875,-0.265625 v 5.171875 c 0,0.359375 -0.03125,0.46875 -0.921875,0.46875 h -0.3125 V 0 c 0.34375,-0.03125 1.203125,-0.03125 1.609375,-0.03125 0.390625,0 1.265625,0 1.609375,0.03125 v -0.3125 h -0.3125 c -0.90625,0 -0.921875,-0.109375 -0.921875,-0.46875 z m 0,0"
           id="path7121" />
      </symbol>
      <symbol
         overflow="visible"
         id="symbol2970">
        <path
           style="stroke:none"
           d="m 6.84375,-3.265625 c 0.15625,0 0.34375,0 0.34375,-0.1875 C 7.1875,-3.65625 7,-3.65625 6.859375,-3.65625 h -5.96875 c -0.140625,0 -0.328125,0 -0.328125,0.203125 0,0.1875 0.1875,0.1875 0.328125,0.1875 z m 0.015625,1.9375 c 0.140625,0 0.328125,0 0.328125,-0.203125 0,-0.1875 -0.1875,-0.1875 -0.34375,-0.1875 H 0.890625 c -0.140625,0 -0.328125,0 -0.328125,0.1875 0,0.203125 0.1875,0.203125 0.328125,0.203125 z m 0,0"
           id="path3000" />
      </symbol>
      <symbol
         overflow="visible"
         id="symbol6082">
        <path
           style="stroke:none"
           d="m 4.578125,-3.1875 c 0,-0.796875 -0.046875,-1.59375 -0.390625,-2.328125 -0.453125,-0.96875 -1.28125,-1.125 -1.6875,-1.125 -0.609375,0 -1.328125,0.265625 -1.75,1.1875 -0.3125,0.6875 -0.359375,1.46875 -0.359375,2.265625 0,0.75 0.03125,1.640625 0.453125,2.40625 0.421875,0.796875 1.15625,1 1.640625,1 0.53125,0 1.296875,-0.203125 1.734375,-1.15625 0.3125,-0.6875 0.359375,-1.46875 0.359375,-2.25 z M 2.484375,0 C 2.09375,0 1.5,-0.25 1.328125,-1.203125 1.21875,-1.796875 1.21875,-2.71875 1.21875,-3.3125 c 0,-0.640625 0,-1.296875 0.078125,-1.828125 0.1875,-1.1875 0.9375,-1.28125 1.1875,-1.28125 0.328125,0 0.984375,0.1875 1.171875,1.171875 0.109375,0.5625 0.109375,1.3125 0.109375,1.9375 0,0.75 0,1.421875 -0.109375,2.0625 C 3.5,-0.296875 2.9375,0 2.484375,0 Z m 0,0"
           id="path7261" />
      </symbol>
    </g>
  </defs>
  <g
     id="layer1"
     transform="translate(31.241475,-116.84289)"><g
   aria-label="⠑⠥⠇⠑⠗⠀⠝⠥⠍⠃⠑⠗⠀⠞⠕⠀⠞⠓⠑⠏⠕⠺⠑⠗⠀⠕⠋⠀⠞⠓⠑⠀⠊⠍⠁⠛⠊⠝⠁⠗⠽⠥⠝⠊⠞⠀⠞⠊⠍⠑⠎⠀⠏⠊⠀⠏⠇⠥⠎⠀⠕⠝⠑⠑⠟⠥⠁⠇⠎⠀⠵⠑⠗⠕"
   id="text2130"
   style="font-size:16.3202px;line-height:100%;-inkscape-font-specification:sans-serif;letter-spacing:0px;word-spacing:0px;fill:#4d576b;stroke-width:0.382502px">
  <path
     d="m -17.367814,126.84289 h 2.390654 v 2.39066 h -2.390654 z m 4.781308,4.51834 h 2.390655 v 2.39065 h -2.390655 z"
     id="path1744" />
  <path
     d="m -5.4145425,126.84289 h 2.3906543 v 2.39066 h -2.3906543 z m 0,9.02871 h 2.3906543 v 2.39065 h -2.3906543 z m 4.78130861,0 H 1.7574204 v 2.39065 h -2.39065429 z"
     id="path1746" />
  <path
     d="m 6.5387294,126.84289 h 2.3906543 v 2.39066 H 6.5387294 Z m 0,4.51834 h 2.3906543 v 2.39065 H 6.5387294 Z m 0,4.51037 h 2.3906543 v 2.39065 H 6.5387294 Z"
     id="path1748" />
  <path
     d="m 18.492003,126.84289 h 2.390654 v 2.39066 h -2.390654 z m 4.781309,4.51834 h 2.390654 v 2.39065 h -2.390654 z"
     id="path1750" />
  <path
     d="m 30.445273,126.84289 h 2.390654 v 2.39066 h -2.390654 z m 0,4.51834 h 2.390654 v 2.39065 h -2.390654 z m 0,4.51037 h 2.390654 v 2.39065 h -2.390654 z m 4.781309,-4.51037 h 2.390654 v 2.39065 h -2.390654 z"
     id="path1752" />
  <path
     d="m 54.351821,126.84289 h 2.390654 v 2.39066 h -2.390654 z m 0,9.02871 h 2.390654 v 2.39065 h -2.390654 z m 4.781308,-9.02871 h 2.390655 v 2.39066 h -2.390655 z m 0,4.51834 h 2.390655 v 2.39065 h -2.390655 z"
     id="path1754" />
  <path
     d="m 66.305091,126.84289 h 2.390654 v 2.39066 h -2.390654 z m 0,9.02871 h 2.390654 v 2.39065 h -2.390654 z m 4.781308,0 h 2.390655 v 2.39065 h -2.390655 z"
     id="path1756" />
  <path
     d="m 78.258361,126.84289 h 2.390654 v 2.39066 h -2.390654 z m 0,9.02871 h 2.390654 v 2.39065 h -2.390654 z m 4.781308,-9.02871 h 2.390654 v 2.39066 h -2.390654 z"
     id="path1758" />
  <path
     d="m 90.211631,126.84289 h 2.390654 v 2.39066 h -2.390654 z m 0,4.51834 h 2.390654 v 2.39065 h -2.390654 z"
     id="path1760" />
  <path
     d="m 102.1649,126.84289 h 2.39065 v 2.39066 h -2.39065 z m 4.78131,4.51834 h 2.39065 v 2.39065 h -2.39065 z"
     id="path1762" />
  <path
     d="m 114.11818,126.84289 h 2.39065 v 2.39066 h -2.39065 z m 0,4.51834 h 2.39065 v 2.39065 h -2.39065 z m 0,4.51037 h 2.39065 v 2.39065 h -2.39065 z m 4.78131,-4.51037 h 2.39065 v 2.39065 h -2.39065 z"
     id="path1764" />
  <path
     d="m 138.02472,131.36123 h 2.39065 v 2.39065 h -2.39065 z m 0,4.51037 h 2.39065 v 2.39065 h -2.39065 z m 4.78131,-9.02871 h 2.39065 v 2.39066 h -2.39065 z m 0,4.51834 h 2.39065 v 2.39065 h -2.39065 z"
     id="path1766" />
  <path
     d="m 149.978,126.84289 h 2.39065 v 2.39066 H 149.978 Z m 0,9.02871 h 2.39065 v 2.39065 H 149.978 Z m 4.7813,-4.51037 h 2.39066 v 2.39065 h -2.39066 z"
     id="path1768" />
  <path
     d="m 173.88454,131.36123 h 2.39065 v 2.39065 h -2.39065 z m 0,4.51037 h 2.39065 v 2.39065 h -2.39065 z m 4.7813,-9.02871 h 2.39066 v 2.39066 h -2.39066 z m 0,4.51834 h 2.39066 v 2.39065 h -2.39066 z"
     id="path1770" />
  <path
     d="m 185.83781,126.84289 h 2.39066 v 2.39066 h -2.39066 z m 0,4.51834 h 2.39066 v 2.39065 h -2.39066 z m 4.78131,0 h 2.39066 v 2.39065 h -2.39066 z"
     id="path1772" />
  <path
     d="m 197.79108,126.84289 h 2.39065 v 2.39066 h -2.39065 z m 4.7813,4.51834 h 2.39066 v 2.39065 h -2.39066 z"
     id="path1774" />
  <path
     d="m -17.367814,143.1631 h 2.390654 v 2.39065 h -2.390654 z m 0,4.51833 h 2.390654 v 2.39066 h -2.390654 z m 0,4.51037 h 2.390654 v 2.39066 h -2.390654 z m 4.781308,-9.0287 h 2.390655 v 2.39065 h -2.390655 z"
     id="path1776" />
  <path
     d="m -5.4145425,143.1631 h 2.3906543 v 2.39065 h -2.3906543 z m 0,9.0287 h 2.3906543 v 2.39066 h -2.3906543 z m 4.78130861,-4.51037 H 1.7574204 v 2.39066 h -2.39065429 z"
     id="path1778" />
  <path
     d="m 6.5387294,147.68143 h 2.3906543 v 2.39066 H 6.5387294 Z m 4.7813086,-4.51833 h 2.390654 v 2.39065 h -2.390654 z m 0,4.51833 h 2.390654 v 2.39066 h -2.390654 z m 0,4.51037 h 2.390654 v 2.39066 h -2.390654 z"
     id="path1780" />
  <path
     d="m 18.492003,143.1631 h 2.390654 v 2.39065 h -2.390654 z m 4.781309,4.51833 h 2.390654 v 2.39066 h -2.390654 z"
     id="path1782" />
  <path
     d="m 30.445273,143.1631 h 2.390654 v 2.39065 h -2.390654 z m 0,4.51833 h 2.390654 v 2.39066 h -2.390654 z m 0,4.51037 h 2.390654 v 2.39066 h -2.390654 z m 4.781309,-4.51037 h 2.390654 v 2.39066 h -2.390654 z"
     id="path1784" />
  <path
     d="m 54.351821,143.1631 h 2.390654 v 2.39065 h -2.390654 z m 0,9.0287 h 2.390654 v 2.39066 h -2.390654 z m 4.781308,-4.51037 h 2.390655 v 2.39066 h -2.390655 z"
     id="path1786" />
  <path
     d="m 66.305091,143.1631 h 2.390654 v 2.39065 h -2.390654 z m 0,4.51833 h 2.390654 v 2.39066 h -2.390654 z m 4.781308,-4.51833 h 2.390655 v 2.39065 h -2.390655 z"
     id="path1788" />
  <path
     d="m 90.211631,147.68143 h 2.390654 v 2.39066 h -2.390654 z m 0,4.51037 h 2.390654 v 2.39066 h -2.390654 z m 4.781308,-9.0287 h 2.390654 v 2.39065 h -2.390654 z m 0,4.51833 h 2.390654 v 2.39066 h -2.390654 z"
     id="path1790" />
  <path
     d="m 102.1649,143.1631 h 2.39065 v 2.39065 h -2.39065 z m 0,4.51833 h 2.39065 v 2.39066 h -2.39065 z m 4.78131,0 h 2.39065 v 2.39066 h -2.39065 z"
     id="path1792" />
  <path
     d="m 114.11818,143.1631 h 2.39065 v 2.39065 h -2.39065 z m 4.78131,4.51833 h 2.39065 v 2.39066 h -2.39065 z"
     id="path1794" />
  <path
     d="m 138.02472,147.68143 h 2.39065 v 2.39066 h -2.39065 z m 4.78131,-4.51833 h 2.39065 v 2.39065 h -2.39065 z"
     id="path1796" />
  <path
     d="m 149.978,143.1631 h 2.39065 v 2.39065 H 149.978 Z m 0,9.0287 h 2.39065 v 2.39066 H 149.978 Z m 4.7813,-9.0287 h 2.39066 v 2.39065 h -2.39066 z"
     id="path1798" />
  <path
     d="m 161.93126,143.1631 h 2.39065 v 2.39065 h -2.39065 z"
     id="path1800" />
  <path
     d="m 173.88454,143.1631 h 2.39065 v 2.39065 h -2.39065 z m 0,4.51833 h 2.39065 v 2.39066 h -2.39065 z m 4.7813,-4.51833 h 2.39066 v 2.39065 h -2.39066 z m 0,4.51833 h 2.39066 v 2.39066 h -2.39066 z"
     id="path1802" />
  <path
     d="m 185.83781,147.68143 h 2.39066 v 2.39066 h -2.39066 z m 4.78131,-4.51833 h 2.39066 v 2.39065 h -2.39066 z"
     id="path1804" />
  <path
     d="m 197.79108,143.1631 h 2.39065 v 2.39065 h -2.39065 z m 0,9.0287 h 2.39065 v 2.39066 h -2.39065 z m 4.7813,-9.0287 h 2.39066 v 2.39065 h -2.39066 z m 0,4.51833 h 2.39066 v 2.39066 h -2.39066 z"
     id="path1806" />
  <path
     d="m 209.74435,143.1631 h 2.39066 v 2.39065 h -2.39066 z"
     id="path1808" />
  <path
     d="m 221.69762,143.1631 h 2.39065 v 2.39065 h -2.39065 z m 0,4.51833 h 2.39065 v 2.39066 h -2.39065 z m 0,4.51037 h 2.39065 v 2.39066 h -2.39065 z m 4.7813,-4.51037 h 2.39066 v 2.39066 h -2.39066 z"
     id="path1810" />
  <path
     d="m 233.65089,143.1631 h 2.39066 v 2.39065 h -2.39066 z m 0,9.0287 h 2.39066 v 2.39066 h -2.39066 z m 4.78131,-9.0287 h 2.39066 v 2.39065 h -2.39066 z m 0,4.51833 h 2.39066 v 2.39066 h -2.39066 z m 0,4.51037 h 2.39066 v 2.39066 h -2.39066 z"
     id="path1812" />
  <path
     d="m -17.367814,159.48329 h 2.390654 v 2.39065 h -2.390654 z m 0,9.0287 h 2.390654 v 2.39066 h -2.390654 z m 4.781308,0 h 2.390655 v 2.39066 h -2.390655 z"
     id="path1814" />
  <path
     d="m -5.4145425,159.48329 h 2.3906543 v 2.39065 h -2.3906543 z m 0,9.0287 h 2.3906543 v 2.39066 h -2.3906543 z m 4.78130861,-9.0287 H 1.7574204 v 2.39065 h -2.39065429 z m 0,4.51833 H 1.7574204 v 2.39066 h -2.39065429 z"
     id="path1816" />
  <path
     d="m 6.5387294,164.00162 h 2.3906543 v 2.39066 H 6.5387294 Z m 4.7813086,-4.51833 h 2.390654 v 2.39065 h -2.390654 z"
     id="path1818" />
  <path
     d="m 18.492003,164.00162 h 2.390654 v 2.39066 h -2.390654 z m 0,4.51037 h 2.390654 v 2.39066 h -2.390654 z m 4.781309,-9.0287 h 2.390654 v 2.39065 h -2.390654 z m 0,4.51833 h 2.390654 v 2.39066 h -2.390654 z"
     id="path1820" />
  <path
     d="m 42.398543,164.00162 h 2.390654 v 2.39066 h -2.390654 z m 0,4.51037 h 2.390654 v 2.39066 h -2.390654 z m 4.781309,-9.0287 h 2.390654 v 2.39065 h -2.390654 z m 0,4.51833 h 2.390654 v 2.39066 h -2.390654 z"
     id="path1822" />
  <path
     d="m 54.351821,164.00162 h 2.390654 v 2.39066 h -2.390654 z m 4.781308,-4.51833 h 2.390655 v 2.39065 h -2.390655 z"
     id="path1824" />
  <path
     d="m 66.305091,159.48329 h 2.390654 v 2.39065 h -2.390654 z m 0,9.0287 h 2.390654 v 2.39066 h -2.390654 z m 4.781308,-9.0287 h 2.390655 v 2.39065 h -2.390655 z"
     id="path1826" />
  <path
     d="m 78.258361,159.48329 h 2.390654 v 2.39065 h -2.390654 z m 4.781308,4.51833 h 2.390654 v 2.39066 h -2.390654 z"
     id="path1828" />
  <path
     d="m 90.211631,164.00162 h 2.390654 v 2.39066 h -2.390654 z m 0,4.51037 h 2.390654 v 2.39066 h -2.390654 z m 4.781308,-9.0287 h 2.390654 v 2.39065 h -2.390654 z"
     id="path1830" />
  <path
     d="m 114.11818,159.48329 h 2.39065 v 2.39065 h -2.39065 z m 0,4.51833 h 2.39065 v 2.39066 h -2.39065 z m 0,4.51037 h 2.39065 v 2.39066 h -2.39065 z m 4.78131,-9.0287 h 2.39065 v 2.39065 h -2.39065 z"
     id="path1832" />
  <path
     d="m 126.07146,164.00162 h 2.39065 v 2.39066 h -2.39065 z m 4.7813,-4.51833 h 2.39066 v 2.39065 h -2.39066 z"
     id="path1834" />
  <path
     d="m 149.978,159.48329 h 2.39065 v 2.39065 H 149.978 Z m 0,4.51833 h 2.39065 v 2.39066 H 149.978 Z m 0,4.51037 h 2.39065 v 2.39066 H 149.978 Z m 4.7813,-9.0287 h 2.39066 v 2.39065 h -2.39066 z"
     id="path1836" />
  <path
     d="m 161.93126,159.48329 h 2.39065 v 2.39065 h -2.39065 z m 0,4.51833 h 2.39065 v 2.39066 h -2.39065 z m 0,4.51037 h 2.39065 v 2.39066 h -2.39065 z"
     id="path1838" />
  <path
     d="m 173.88454,159.48329 h 2.39065 v 2.39065 h -2.39065 z m 0,9.0287 h 2.39065 v 2.39066 h -2.39065 z m 4.7813,0 h 2.39066 v 2.39066 h -2.39066 z"
     id="path1840" />
  <path
     d="m 185.83781,164.00162 h 2.39066 v 2.39066 h -2.39066 z m 0,4.51037 h 2.39066 v 2.39066 h -2.39066 z m 4.78131,-9.0287 h 2.39066 v 2.39065 h -2.39066 z"
     id="path1842" />
  <path
     d="m 209.74435,159.48329 h 2.39066 v 2.39065 h -2.39066 z m 0,9.0287 h 2.39066 v 2.39066 h -2.39066 z m 4.78131,-4.51037 h 2.39066 v 2.39066 h -2.39066 z"
     id="path1844" />
  <path
     d="m 221.69762,159.48329 h 2.39065 v 2.39065 h -2.39065 z m 0,9.0287 h 2.39065 v 2.39066 h -2.39065 z m 4.7813,-9.0287 h 2.39066 v 2.39065 h -2.39066 z m 0,4.51833 h 2.39066 v 2.39066 h -2.39066 z"
     id="path1846" />
  <path
     d="m 233.65089,159.48329 h 2.39066 v 2.39065 h -2.39066 z m 4.78131,4.51833 h 2.39066 v 2.39066 h -2.39066 z"
     id="path1848" />
  <path
     d="m -17.367814,175.80349 h 2.390654 v 2.39066 h -2.390654 z m 4.781308,4.51834 h 2.390655 v 2.39065 h -2.390655 z"
     id="path1850" />
  <path
     d="m -5.4145425,175.80349 h 2.3906543 v 2.39066 h -2.3906543 z m 0,4.51834 h 2.3906543 v 2.39065 h -2.3906543 z m 0,4.51037 h 2.3906543 v 2.39065 h -2.3906543 z m 4.78130861,-9.02871 H 1.7574204 v 2.39066 h -2.39065429 z m 0,4.51834 H 1.7574204 v 2.39065 h -2.39065429 z"
     id="path1852" />
  <path
     d="m 6.5387294,175.80349 h 2.3906543 v 2.39066 H 6.5387294 Z m 0,9.02871 h 2.3906543 v 2.39065 H 6.5387294 Z m 4.7813086,0 h 2.390654 v 2.39065 h -2.390654 z"
     id="path1854" />
  <path
     d="m 18.492003,175.80349 h 2.390654 v 2.39066 h -2.390654 z"
     id="path1856" />
  <path
     d="m 30.445273,175.80349 h 2.390654 v 2.39066 h -2.390654 z m 0,4.51834 h 2.390654 v 2.39065 h -2.390654 z m 0,4.51037 h 2.390654 v 2.39065 h -2.390654 z"
     id="path1858" />
  <path
     d="m 42.398543,180.32183 h 2.390654 v 2.39065 h -2.390654 z m 0,4.51037 h 2.390654 v 2.39065 h -2.390654 z m 4.781309,-9.02871 h 2.390654 v 2.39066 h -2.390654 z"
     id="path1860" />
  <path
     d="m 66.305091,175.80349 h 2.390654 v 2.39066 h -2.390654 z m 0,9.02871 h 2.390654 v 2.39065 h -2.390654 z m 4.781308,-4.51037 h 2.390655 v 2.39065 h -2.390655 z m 0,4.51037 h 2.390655 v 2.39065 h -2.390655 z"
     id="path1862" />
  <path
     d="m 78.258361,175.80349 h 2.390654 v 2.39066 h -2.390654 z m 4.781308,4.51834 h 2.390654 v 2.39065 h -2.390654 z"
     id="path1864" />
  <path
     d="m 90.211631,175.80349 h 2.390654 v 2.39066 h -2.390654 z m 0,4.51834 h 2.390654 v 2.39065 h -2.390654 z m 0,4.51037 h 2.390654 v 2.39065 h -2.390654 z m 4.781308,-4.51037 h 2.390654 v 2.39065 h -2.390654 z"
     id="path1866" />
  <path
     d="m 102.1649,175.80349 h 2.39065 v 2.39066 h -2.39065 z m 0,9.02871 h 2.39065 v 2.39065 h -2.39065 z m 4.78131,-4.51037 h 2.39065 v 2.39065 h -2.39065 z"
     id="path1868" />
</g>
<g
   aria-label="&lt;math&gt;&lt;msup&gt;&lt;mi&gt;e&lt;/mi&gt;&lt;mrow&gt;&lt;mi&gt;i&lt;/mi&gt;&lt;mi&gt;π&lt;/mi&gt;&lt;/mrow&gt;&lt;/msup&gt;&lt;mo&gt;+&lt;/mo&gt;&lt;mn&gt;1&lt;/mn&gt;&lt;mo&gt;=&lt;/mo&gt;&lt;mn&gt;0&lt;/mn&gt;&lt;/math&gt;"
   id="text21032"
   style="font-size:13.8619px;line-height:100%;-inkscape-font-specification:sans-serif;letter-spacing:0px;word-spacing:0px;fill:#b48ead;fill-opacity:0.466667;stroke-width:0.324885px">
  <path
     d="m 3.8225448,135.09601 -5.7532302,2.16592 5.7532302,2.14561 v 1.23864 l -7.1543109,-2.82923 v -1.12358 l 7.1543109,-2.82923 z"
     style="font-family:monospace;-inkscape-font-specification:monospace"
     id="path1889" />
  <path
     d="m 8.9936831,134.79142 q 0.2301292,-0.48733 0.5820916,-0.71746 0.3587308,-0.2369 0.8596003,-0.2369 0.913748,0 1.286016,0.7107 0.379036,0.70392 0.379036,2.66002 v 4.39276 h -1.137109 v -4.33861 q 0,-1.60414 -0.182749,-1.98994 -0.175981,-0.39258 -0.649777,-0.39258 -0.5414803,0 -0.7445355,0.41965 -0.1962867,0.41288 -0.1962867,1.96287 v 4.33861 h -1.137109 v -4.33861 q 0,-1.62444 -0.1962867,-2.00348 -0.1895181,-0.37904 -0.6903876,-0.37904 -0.4941009,0 -0.6903876,0.41965 -0.1895182,0.41288 -0.1895182,1.96287 v 4.33861 H 5.1559402 v -7.58073 h 1.1303405 v 0.64978 q 0.2233607,-0.40611 0.5550175,-0.61593 0.3384253,-0.2166 0.7648412,-0.2166 0.5144065,0 0.8528318,0.2369 0.3451938,0.2369 0.5347119,0.71746 z"
     style="font-family:monospace;-inkscape-font-specification:monospace"
     id="path1891" />
  <path
     d="m 17.515232,137.78987 h -0.412879 q -1.089729,0 -1.644747,0.38581 -0.548249,0.37903 -0.548249,1.13711 0,0.68361 0.412879,1.06265 0.412879,0.37904 1.143878,0.37904 1.028812,0 1.617673,-0.7107 0.58886,-0.71746 0.595628,-1.9764 v -0.27751 z m 2.416357,-0.51441 v 4.32508 h -1.252174 v -1.12357 q -0.399342,0.67685 -1.008507,1.00174 -0.602397,0.31812 -1.468766,0.31812 -1.157415,0 -1.847802,-0.64978 -0.690388,-0.65654 -0.690388,-1.75304 0,-1.26571 0.846063,-1.92226 0.852832,-0.65654 2.497579,-0.65654 h 1.671821 v -0.19629 q -0.0068,-0.90698 -0.460258,-1.31309 -0.45349,-0.41288 -1.448461,-0.41288 -0.636239,0 -1.286016,0.18275 -0.649776,0.18275 -1.26571,0.53471 v -1.2454 q 0.690387,-0.26397 1.319858,-0.39258 0.63624,-0.13537 1.231868,-0.13537 0.940823,0 1.604136,0.27751 0.670082,0.27751 1.082961,0.83253 0.257203,0.33842 0.3655,0.83929 0.108296,0.4941 0.108296,1.48907 z"
     style="font-family:monospace;-inkscape-font-specification:monospace"
     id="path1893" />
  <path
     d="m 25.265171,131.86743 v 2.15238 h 2.829236 v 0.9679 h -2.829236 v 4.11525 q 0,0.8393 0.31812,1.17095 0.31812,0.33166 1.110035,0.33166 h 1.401081 v 0.99497 h -1.522914 q -1.401081,0 -1.976404,-0.56179 -0.575323,-0.56178 -0.575323,-1.93579 v -4.11525 h -2.023783 v -0.9679 h 2.023783 v -2.15238 z"
     style="font-family:monospace;-inkscape-font-specification:monospace"
     id="path1895" />
  <path
     d="m 36.568576,136.9032 v 4.69734 h -1.252174 v -4.69734 q 0,-1.02205 -0.35873,-1.50261 -0.358731,-0.48057 -1.123572,-0.48057 -0.873138,0 -1.346933,0.62271 -0.467027,0.61593 -0.467027,1.77335 v 4.28446 h -1.245405 v -10.5318 h 1.245405 v 4.08818 q 0.331657,-0.64977 0.900211,-0.98143 0.568555,-0.33843 1.346933,-0.33843 1.157414,0 1.725969,0.76484 0.575323,0.75808 0.575323,2.3013 z"
     style="font-family:monospace;-inkscape-font-specification:monospace"
     id="path1897" />
  <path
     d="m 38.396071,135.09601 v -1.23187 l 7.15431,2.82923 v 1.12358 l -7.15431,2.82923 v -1.23864 l 5.75323,-2.14561 z"
     style="font-family:monospace;-inkscape-font-specification:monospace"
     id="path1899" />
  <path
     d="m 53.895951,135.09601 -5.75323,2.16592 5.75323,2.14561 v 1.23864 l -7.154311,-2.82923 v -1.12358 l 7.154311,-2.82923 z"
     style="font-family:monospace;-inkscape-font-specification:monospace"
     id="path1901" />
  <path
     d="m 59.067091,134.79142 q 0.230129,-0.48733 0.582092,-0.71746 0.358731,-0.2369 0.8596,-0.2369 0.913748,0 1.286016,0.7107 0.379037,0.70392 0.379037,2.66002 v 4.39276 h -1.137109 v -4.33861 q 0,-1.60414 -0.18275,-1.98994 -0.175981,-0.39258 -0.649777,-0.39258 -0.54148,0 -0.744535,0.41965 -0.196287,0.41288 -0.196287,1.96287 v 4.33861 h -1.137109 v -4.33861 q 0,-1.62444 -0.196287,-2.00348 -0.189518,-0.37904 -0.690387,-0.37904 -0.494101,0 -0.690388,0.41965 -0.189518,0.41288 -0.189518,1.96287 v 4.33861 h -1.130341 v -7.58073 h 1.130341 v 0.64978 q 0.223361,-0.40611 0.555017,-0.61593 0.338426,-0.2166 0.764842,-0.2166 0.514406,0 0.852831,0.2369 0.345194,0.2369 0.534712,0.71746 z"
     style="font-family:monospace;-inkscape-font-specification:monospace"
     id="path1903" />
  <path
     d="m 69.422903,134.28379 v 1.21833 q -0.534712,-0.31136 -1.076192,-0.46703 -0.541481,-0.15568 -1.103267,-0.15568 -0.846063,0 -1.26571,0.27751 -0.412879,0.27074 -0.412879,0.83253 0,0.50764 0.311351,0.75807 0.311351,0.25044 1.549988,0.48733 l 0.50087,0.0948 q 0.927285,0.17598 1.40108,0.70393 0.480564,0.52794 0.480564,1.374 0,1.12358 -0.798684,1.75982 -0.798683,0.62947 -2.220069,0.62947 -0.561786,0 -1.177721,-0.12184 -0.615934,-0.11506 -1.333395,-0.35196 v -1.28601 q 0.697156,0.35873 1.333395,0.54148 0.63624,0.17598 1.204795,0.17598 0.825757,0 1.279247,-0.33166 0.45349,-0.33843 0.45349,-0.94082 0,-0.86637 -1.658284,-1.19803 l -0.05415,-0.0135 -0.467027,-0.0948 q -1.076192,-0.20983 -1.570293,-0.70393 -0.494101,-0.50087 -0.494101,-1.36047 0,-1.08973 0.737767,-1.67859 0.737767,-0.59563 2.105005,-0.59563 0.609166,0 1.170952,0.11507 0.561786,0.10829 1.103266,0.33166 z"
     style="font-family:monospace;-inkscape-font-specification:monospace"
     id="path1905" />
  <path
     d="m 72.502571,138.73069 v -4.69734 h 1.245406 v 4.69734 q 0,1.02205 0.35873,1.50261 0.3655,0.48057 1.123572,0.48057 0.879906,0 1.346933,-0.61594 0.467027,-0.6227 0.467027,-1.78012 v -4.28446 h 1.252174 v 7.56719 h -1.252174 v -1.13711 q -0.331657,0.65655 -0.90698,0.99497 -0.568554,0.33843 -1.333395,0.33843 -1.164184,0 -1.732738,-0.75808 -0.568555,-0.76484 -0.568555,-2.30806 z"
     style="font-family:monospace;-inkscape-font-specification:monospace"
     id="path1907" />
  <path
     d="m 82.066468,140.64618 v 3.83774 h -1.252173 v -10.46411 h 1.252173 v 0.9679 q 0.311352,-0.56179 0.825758,-0.85283 0.521175,-0.29782 1.198026,-0.29782 1.374006,0 2.152385,1.06266 0.785146,1.06265 0.785146,2.9443 0,1.8478 -0.785146,2.90369 -0.785147,1.04912 -2.152385,1.04912 -0.690388,0 -1.211563,-0.29105 -0.514406,-0.29781 -0.812221,-0.8596 z m 3.654994,-2.82923 q 0,-1.44846 -0.460259,-2.18623 -0.45349,-0.73777 -1.353701,-0.73777 -0.90698,0 -1.374007,0.74454 -0.467027,0.73776 -0.467027,2.17946 0,1.43492 0.467027,2.17945 0.467027,0.74454 1.374007,0.74454 0.900211,0 1.353701,-0.73777 0.460259,-0.73776 0.460259,-2.18622 z"
     style="font-family:monospace;-inkscape-font-specification:monospace"
     id="path1909" />
  <path
     d="m 88.469481,135.09601 v -1.23187 l 7.15431,2.82923 v 1.12358 l -7.15431,2.82923 v -1.23864 l 5.75323,-2.14561 z"
     style="font-family:monospace;-inkscape-font-specification:monospace"
     id="path1911" />
  <path
     d="m 103.96936,135.09601 -5.753233,2.16592 5.753233,2.14561 v 1.23864 l -7.154314,-2.82923 v -1.12358 l 7.154314,-2.82923 z"
     style="font-family:monospace;-inkscape-font-specification:monospace"
     id="path1913" />
  <path
     d="m 109.14049,134.79142 q 0.23013,-0.48733 0.5821,-0.71746 0.35873,-0.2369 0.8596,-0.2369 0.91374,0 1.28601,0.7107 0.37904,0.70392 0.37904,2.66002 v 4.39276 h -1.13711 v -4.33861 q 0,-1.60414 -0.18275,-1.98994 -0.17598,-0.39258 -0.64978,-0.39258 -0.54148,0 -0.74453,0.41965 -0.19629,0.41288 -0.19629,1.96287 v 4.33861 h -1.13711 v -4.33861 q 0,-1.62444 -0.19629,-2.00348 -0.18951,-0.37904 -0.69038,-0.37904 -0.4941,0 -0.69039,0.41965 -0.18952,0.41288 -0.18952,1.96287 v 4.33861 h -1.13034 v -7.58073 h 1.13034 v 0.64978 q 0.22336,-0.40611 0.55502,-0.61593 0.33842,-0.2166 0.76484,-0.2166 0.51441,0 0.85283,0.2369 0.3452,0.2369 0.53471,0.71746 z"
     style="font-family:monospace;-inkscape-font-specification:monospace"
     id="path1915" />
  <path
     d="m 114.64329,134.01981 h 3.18797 v 6.61283 h 2.47051 v 0.9679 h -6.18642 v -0.9679 h 2.47051 v -5.64493 h -1.94257 z m 1.94257,-2.95107 h 1.2454 v 1.57707 h -1.2454 z"
     style="font-family:monospace;-inkscape-font-specification:monospace"
     id="path1917" />
  <path
     d="m 121.85175,135.09601 v -1.23187 l 7.15431,2.82923 v 1.12358 l -7.15431,2.82923 v -1.23864 l 5.75323,-2.14561 z"
     style="font-family:monospace;-inkscape-font-specification:monospace"
     id="path1919" />
  <path
     d="m 137.12827,137.49883 v 0.60916 h -5.3945 v 0.0406 q 0,1.23864 0.64301,1.91549 0.64977,0.67685 1.82749,0.67685 0.59563,0 1.24541,-0.18952 0.64977,-0.18952 1.38754,-0.57532 v 1.23864 q -0.71069,0.29104 -1.37401,0.43318 -0.65654,0.14891 -1.27247,0.14891 -1.76658,0 -2.76155,-1.05589 -0.99498,-1.06266 -0.99498,-2.92399 0,-1.81396 0.97467,-2.89693 0.97466,-1.08296 2.59911,-1.08296 1.44846,0 2.28098,0.98144 0.8393,0.98143 0.8393,2.68033 z m -1.24541,-0.3655 q -0.0271,-1.0965 -0.52117,-1.66506 -0.48734,-0.57532 -1.40785,-0.57532 -0.90021,0 -1.4823,0.59563 -0.5821,0.59563 -0.69039,1.65151 z"
     style="font-family:monospace;-inkscape-font-specification:monospace"
     id="path1921" />
  <path
     d="m 145.69719,135.09601 -5.75323,2.16592 5.75323,2.14561 v 1.23864 l -7.15431,-2.82923 v -1.12358 l 7.15431,-2.82923 z"
     style="font-family:monospace;-inkscape-font-specification:monospace"
     id="path1923" />
  <path
     d="m 152.31002,131.49516 h 1.28602 l -5.32005,11.3914 h -1.29278 z"
     style="font-family:monospace;-inkscape-font-specification:monospace"
     id="path1925" />
  <path
     d="m 159.2139,134.79142 q 0.23013,-0.48733 0.58209,-0.71746 0.35873,-0.2369 0.8596,-0.2369 0.91375,0 1.28601,0.7107 0.37904,0.70392 0.37904,2.66002 v 4.39276 h -1.13711 v -4.33861 q 0,-1.60414 -0.18275,-1.98994 -0.17598,-0.39258 -0.64977,-0.39258 -0.54149,0 -0.74454,0.41965 -0.19629,0.41288 -0.19629,1.96287 v 4.33861 h -1.13711 v -4.33861 q 0,-1.62444 -0.19628,-2.00348 -0.18952,-0.37904 -0.69039,-0.37904 -0.4941,0 -0.69039,0.41965 -0.18952,0.41288 -0.18952,1.96287 v 4.33861 h -1.13034 v -7.58073 h 1.13034 v 0.64978 q 0.22336,-0.40611 0.55502,-0.61593 0.33843,-0.2166 0.76484,-0.2166 0.51441,0 0.85283,0.2369 0.3452,0.2369 0.53472,0.71746 z"
     style="font-family:monospace;-inkscape-font-specification:monospace"
     id="path1927" />
  <path
     d="m 164.71669,134.01981 h 3.18797 v 6.61283 h 2.4705 v 0.9679 h -6.18641 v -0.9679 h 2.4705 v -5.64493 h -1.94256 z m 1.94256,-2.95107 h 1.24541 v 1.57707 h -1.24541 z"
     style="font-family:monospace;-inkscape-font-specification:monospace"
     id="path1929" />
  <path
     d="m 171.92516,135.09601 v -1.23187 l 7.15431,2.82923 v 1.12358 l -7.15431,2.82923 v -1.23864 l 5.75323,-2.14561 z"
     style="font-family:monospace;-inkscape-font-specification:monospace"
     id="path1931" />
  <path
     d="m 187.42504,135.09601 -5.75323,2.16592 5.75323,2.14561 v 1.23864 l -7.15431,-2.82923 v -1.12358 l 7.15431,-2.82923 z"
     style="font-family:monospace;-inkscape-font-specification:monospace"
     id="path1933" />
  <path
     d="m 192.59617,134.79142 q 0.23013,-0.48733 0.5821,-0.71746 0.35873,-0.2369 0.8596,-0.2369 0.91374,0 1.28601,0.7107 0.37904,0.70392 0.37904,2.66002 v 4.39276 h -1.13711 v -4.33861 q 0,-1.60414 -0.18275,-1.98994 -0.17598,-0.39258 -0.64978,-0.39258 -0.54148,0 -0.74453,0.41965 -0.19629,0.41288 -0.19629,1.96287 v 4.33861 h -1.13711 v -4.33861 q 0,-1.62444 -0.19628,-2.00348 -0.18952,-0.37904 -0.69039,-0.37904 -0.4941,0 -0.69039,0.41965 -0.18952,0.41288 -0.18952,1.96287 v 4.33861 h -1.13034 v -7.58073 h 1.13034 v 0.64978 q 0.22336,-0.40611 0.55502,-0.61593 0.33842,-0.2166 0.76484,-0.2166 0.51441,0 0.85283,0.2369 0.3452,0.2369 0.53471,0.71746 z"
     style="font-family:monospace;-inkscape-font-specification:monospace"
     id="path1935" />
  <path
     d="m 204.18385,135.58334 q -0.39934,-0.31135 -0.81222,-0.45349 -0.41287,-0.14214 -0.90698,-0.14214 -1.16418,0 -1.78011,0.731 -0.61594,0.731 -0.61594,2.11177 v 3.77006 h -1.25217 v -7.58073 h 1.25217 v 1.48231 q 0.31135,-0.80546 0.95436,-1.23187 0.64978,-0.43319 1.53645,-0.43319 0.46026,0 0.8596,0.11507 0.39935,0.11506 0.76484,0.35873 z"
     style="font-family:monospace;-inkscape-font-specification:monospace"
     id="path1937" />
  <path
     d="m 208.8812,134.89295 q -0.9476,0 -1.43493,0.73777 -0.48733,0.73777 -0.48733,2.18623 0,1.44169 0.48733,2.18622 0.48733,0.73777 1.43493,0.73777 0.95436,0 1.44169,-0.73777 0.48733,-0.74453 0.48733,-2.18622 0,-1.44846 -0.48733,-2.18623 -0.48733,-0.73777 -1.44169,-0.73777 z m 0,-1.05589 q 1.57706,0 2.40958,1.02205 0.8393,1.02204 0.8393,2.95784 0,1.94256 -0.83253,2.9646 -0.83252,1.01528 -2.41635,1.01528 -1.57707,0 -2.40959,-1.01528 -0.83253,-1.02204 -0.83253,-2.9646 0,-1.9358 0.83253,-2.95784 0.83252,-1.02205 2.40959,-1.02205 z"
     style="font-family:monospace;-inkscape-font-specification:monospace"
     id="path1939" />
  <path
     d="m 213.05736,134.01981 h 1.23187 l 1.31986,6.1255 1.08296,-3.9122 h 1.06266 l 1.09649,3.9122 1.31986,-6.1255 h 1.23187 l -1.77335,7.58073 h -1.19126 l -1.21156,-4.15586 -1.20479,4.15586 h -1.19126 z"
     style="font-family:monospace;-inkscape-font-specification:monospace"
     id="path1941" />
  <path
     d="m 221.99856,135.09601 v -1.23187 l 7.15431,2.82923 v 1.12358 l -7.15431,2.82923 v -1.23864 l 5.75323,-2.14561 z"
     style="font-family:monospace;-inkscape-font-specification:monospace"
     id="path1943" />
  <path
     d="m 3.8225448,148.9579 -5.7532302,2.16592 5.7532302,2.14562 v 1.23863 l -7.1543109,-2.82923 v -1.12357 l 7.1543109,-2.82924 z"
     style="font-family:monospace;-inkscape-font-specification:monospace"
     id="path1945" />
  <path
     d="m 8.9936831,148.65332 q 0.2301292,-0.48734 0.5820916,-0.71747 0.3587308,-0.23689 0.8596003,-0.23689 0.913748,0 1.286016,0.71069 0.379036,0.70392 0.379036,2.66002 v 4.39276 h -1.137109 v -4.33861 q 0,-1.60414 -0.182749,-1.98994 -0.175981,-0.39257 -0.649777,-0.39257 -0.5414803,0 -0.7445355,0.41964 -0.1962867,0.41288 -0.1962867,1.96287 v 4.33861 h -1.137109 v -4.33861 q 0,-1.62444 -0.1962867,-2.00348 -0.1895181,-0.37903 -0.6903876,-0.37903 -0.4941009,0 -0.6903876,0.41964 -0.1895182,0.41288 -0.1895182,1.96287 v 4.33861 H 5.1559402 v -7.58072 h 1.1303405 v 0.64977 q 0.2233607,-0.40611 0.5550175,-0.61593 0.3384253,-0.21659 0.7648412,-0.21659 0.5144065,0 0.8528318,0.23689 0.3451938,0.2369 0.5347119,0.71747 z"
     style="font-family:monospace;-inkscape-font-specification:monospace"
     id="path1947" />
  <path
     d="m 14.496478,147.88171 h 3.187967 v 6.61283 h 2.470504 v 0.96789 h -6.186414 v -0.96789 h 2.470505 v -5.64494 h -1.942562 z m 1.942562,-2.95107 h 1.245405 v 1.57706 H 16.43904 Z"
     style="font-family:monospace;-inkscape-font-specification:monospace"
     id="path1949" />
  <path
     d="m 21.704937,148.9579 v -1.23187 l 7.154311,2.82924 v 1.12357 l -7.154311,2.82923 v -1.23863 l 5.75323,-2.14562 z"
     style="font-family:monospace;-inkscape-font-specification:monospace"
     id="path1951" />
  <path
     d="m 31.187614,147.88171 h 3.187966 v 6.61283 h 2.470505 v 0.96789 H 30.65967 v -0.96789 h 2.470505 v -5.64494 h -1.942561 z m 1.942561,-2.95107 h 1.245405 v 1.57706 h -1.245405 z"
     style="font-family:monospace;-inkscape-font-specification:monospace"
     id="path1953" />
  <path
     d="m 45.550381,148.9579 -5.75323,2.16592 5.75323,2.14562 v 1.23863 l -7.15431,-2.82923 v -1.12357 l 7.15431,-2.82924 z"
     style="font-family:monospace;-inkscape-font-specification:monospace"
     id="path1955" />
  <path
     d="m 52.163213,145.35705 h 1.286017 l -5.320046,11.3914 h -1.292785 z"
     style="font-family:monospace;-inkscape-font-specification:monospace"
     id="path1957" />
  <path
     d="m 59.067091,148.65332 q 0.230129,-0.48734 0.582092,-0.71747 0.358731,-0.23689 0.8596,-0.23689 0.913748,0 1.286016,0.71069 0.379037,0.70392 0.379037,2.66002 v 4.39276 h -1.137109 v -4.33861 q 0,-1.60414 -0.18275,-1.98994 -0.175981,-0.39257 -0.649777,-0.39257 -0.54148,0 -0.744535,0.41964 -0.196287,0.41288 -0.196287,1.96287 v 4.33861 h -1.137109 v -4.33861 q 0,-1.62444 -0.196287,-2.00348 -0.189518,-0.37903 -0.690387,-0.37903 -0.494101,0 -0.690388,0.41964 -0.189518,0.41288 -0.189518,1.96287 v 4.33861 h -1.130341 v -7.58072 h 1.130341 v 0.64977 q 0.223361,-0.40611 0.555017,-0.61593 0.338426,-0.21659 0.764842,-0.21659 0.514406,0 0.852831,0.23689 0.345194,0.2369 0.534712,0.71747 z"
     style="font-family:monospace;-inkscape-font-specification:monospace"
     id="path1959" />
  <path
     d="m 64.569885,147.88171 h 3.187966 v 6.61283 h 2.470505 v 0.96789 h -6.186415 v -0.96789 h 2.470505 v -5.64494 h -1.942561 z m 1.942561,-2.95107 h 1.245405 v 1.57706 h -1.245405 z"
     style="font-family:monospace;-inkscape-font-specification:monospace"
     id="path1961" />
  <path
     d="m 71.778341,148.9579 v -1.23187 l 7.154311,2.82924 v 1.12357 l -7.154311,2.82923 v -1.23863 l 5.75323,-2.14562 z"
     style="font-family:monospace;-inkscape-font-specification:monospace"
     id="path1963" />
  <path
     d="m 87.278218,148.9579 -5.75323,2.16592 5.75323,2.14562 v 1.23863 l -7.154311,-2.82923 v -1.12357 l 7.154311,-2.82924 z"
     style="font-family:monospace;-inkscape-font-specification:monospace"
     id="path1965" />
  <path
     d="m 92.449362,148.65332 q 0.230129,-0.48734 0.582092,-0.71747 0.35873,-0.23689 0.8596,-0.23689 0.913748,0 1.286016,0.71069 0.379036,0.70392 0.379036,2.66002 v 4.39276 h -1.137109 v -4.33861 q 0,-1.60414 -0.182749,-1.98994 -0.175981,-0.39257 -0.649777,-0.39257 -0.54148,0 -0.744536,0.41964 -0.196286,0.41288 -0.196286,1.96287 v 4.33861 H 91.50854 v -4.33861 q 0,-1.62444 -0.196287,-2.00348 -0.189518,-0.37903 -0.690388,-0.37903 -0.4941,0 -0.690387,0.41964 -0.189518,0.41288 -0.189518,1.96287 v 4.33861 h -1.130341 v -7.58072 h 1.130341 v 0.64977 q 0.22336,-0.40611 0.555017,-0.61593 0.338425,-0.21659 0.764841,-0.21659 0.514407,0 0.852832,0.23689 0.345194,0.2369 0.534712,0.71747 z"
     style="font-family:monospace;-inkscape-font-specification:monospace"
     id="path1967" />
  <path
     d="m 97.952155,147.88171 h 3.187965 v 6.61283 h 2.47051 v 0.96789 h -6.186418 v -0.96789 h 2.470505 v -5.64494 h -1.942562 z m 1.942562,-2.95107 h 1.245403 v 1.57706 h -1.245403 z"
     style="font-family:monospace;-inkscape-font-specification:monospace"
     id="path1969" />
  <path
     d="m 105.16061,148.9579 v -1.23187 l 7.15431,2.82924 v 1.12357 l -7.15431,2.82923 v -1.23863 l 5.75323,-2.14562 z"
     style="font-family:monospace;-inkscape-font-specification:monospace"
     id="path1971" />
  <path
     d="m 113.45204,147.88171 h 7.2626 v 1.2454 h -0.95435 v 4.65673 q 0,0.48734 0.16244,0.70393 0.16921,0.20982 0.54148,0.20982 0.10153,0 0.25043,-0.0135 0.14891,-0.0203 0.19629,-0.0271 v 0.90021 q -0.2369,0.088 -0.48733,0.1286 -0.25044,0.0406 -0.50087,0.0406 -0.76484,0 -1.07619,-0.43995 -0.31135,-0.44672 -0.31135,-1.63798 v -4.52136 h -2.89693 v 6.33532 h -1.21833 v -6.33532 h -0.96789 z"
     style="font-family:monospace;-inkscape-font-specification:monospace"
     id="path1973" />
  <path
     d="m 129.00606,148.9579 -5.75323,2.16592 5.75323,2.14562 v 1.23863 l -7.15431,-2.82923 v -1.12357 l 7.15431,-2.82924 z"
     style="font-family:monospace;-inkscape-font-specification:monospace"
     id="path1975" />
  <path
     d="m 135.61889,145.35705 h 1.28602 l -5.32005,11.3914 h -1.29278 z"
     style="font-family:monospace;-inkscape-font-specification:monospace"
     id="path1977" />
  <path
     d="m 142.52276,148.65332 q 0.23013,-0.48734 0.5821,-0.71747 0.35873,-0.23689 0.8596,-0.23689 0.91374,0 1.28601,0.71069 0.37904,0.70392 0.37904,2.66002 v 4.39276 h -1.13711 v -4.33861 q 0,-1.60414 -0.18275,-1.98994 -0.17598,-0.39257 -0.64978,-0.39257 -0.54148,0 -0.74453,0.41964 -0.19629,0.41288 -0.19629,1.96287 v 4.33861 h -1.13711 v -4.33861 q 0,-1.62444 -0.19628,-2.00348 -0.18952,-0.37903 -0.69039,-0.37903 -0.4941,0 -0.69039,0.41964 -0.18952,0.41288 -0.18952,1.96287 v 4.33861 h -1.13034 v -7.58072 h 1.13034 v 0.64977 q 0.22336,-0.40611 0.55502,-0.61593 0.33842,-0.21659 0.76484,-0.21659 0.51441,0 0.85283,0.23689 0.3452,0.2369 0.53471,0.71747 z"
     style="font-family:monospace;-inkscape-font-specification:monospace"
     id="path1979" />
  <path
     d="m 148.02556,147.88171 h 3.18796 v 6.61283 h 2.47051 v 0.96789 h -6.18642 v -0.96789 h 2.47051 v -5.64494 h -1.94256 z m 1.94256,-2.95107 h 1.2454 v 1.57706 h -1.2454 z"
     style="font-family:monospace;-inkscape-font-specification:monospace"
     id="path1981" />
  <path
     d="m 155.23401,148.9579 v -1.23187 l 7.15432,2.82924 v 1.12357 l -7.15432,2.82923 v -1.23863 l 5.75323,-2.14562 z"
     style="font-family:monospace;-inkscape-font-specification:monospace"
     id="path1983" />
  <path
     d="m 170.73389,148.9579 -5.75323,2.16592 5.75323,2.14562 v 1.23863 l -7.15431,-2.82923 v -1.12357 l 7.15431,-2.82924 z"
     style="font-family:monospace;-inkscape-font-specification:monospace"
     id="path1985" />
  <path
     d="m 177.34673,145.35705 h 1.28602 l -5.32004,11.3914 h -1.29279 z"
     style="font-family:monospace;-inkscape-font-specification:monospace"
     id="path1987" />
  <path
     d="m 184.25061,148.65332 q 0.23013,-0.48734 0.58209,-0.71747 0.35873,-0.23689 0.8596,-0.23689 0.91375,0 1.28602,0.71069 0.37903,0.70392 0.37903,2.66002 v 4.39276 h -1.13711 v -4.33861 q 0,-1.60414 -0.18275,-1.98994 -0.17598,-0.39257 -0.64977,-0.39257 -0.54148,0 -0.74454,0.41964 -0.19628,0.41288 -0.19628,1.96287 v 4.33861 h -1.13711 v -4.33861 q 0,-1.62444 -0.19629,-2.00348 -0.18952,-0.37903 -0.69039,-0.37903 -0.4941,0 -0.69039,0.41964 -0.18951,0.41288 -0.18951,1.96287 v 4.33861 h -1.13034 v -7.58072 h 1.13034 v 0.64977 q 0.22336,-0.40611 0.55501,-0.61593 0.33843,-0.21659 0.76484,-0.21659 0.51441,0 0.85284,0.23689 0.34519,0.2369 0.53471,0.71747 z"
     style="font-family:monospace;-inkscape-font-specification:monospace"
     id="path1989" />
  <path
     d="m 195.83829,149.44523 q -0.39934,-0.31135 -0.81222,-0.45349 -0.41288,-0.14214 -0.90698,-0.14214 -1.16418,0 -1.78012,0.731 -0.61593,0.731 -0.61593,2.11178 v 3.77005 h -1.25218 v -7.58072 h 1.25218 v 1.4823 q 0.31135,-0.80545 0.95436,-1.23187 0.64977,-0.43318 1.53645,-0.43318 0.46026,0 0.8596,0.11506 0.39934,0.11507 0.76484,0.35873 z"
     style="font-family:monospace;-inkscape-font-specification:monospace"
     id="path1991" />
  <path
     d="m 200.53563,148.75484 q -0.94759,0 -1.43492,0.73777 -0.48734,0.73777 -0.48734,2.18623 0,1.44169 0.48734,2.18623 0.48733,0.73776 1.43492,0.73776 0.95436,0 1.44169,-0.73776 0.48733,-0.74454 0.48733,-2.18623 0,-1.44846 -0.48733,-2.18623 -0.48733,-0.73777 -1.44169,-0.73777 z m 0,-1.05588 q 1.57706,0 2.40959,1.02204 0.83929,1.02205 0.83929,2.95784 0,1.94256 -0.83252,2.9646 -0.83253,1.01528 -2.41636,1.01528 -1.57706,0 -2.40959,-1.01528 -0.83252,-1.02204 -0.83252,-2.9646 0,-1.93579 0.83252,-2.95784 0.83253,-1.02204 2.40959,-1.02204 z"
     style="font-family:monospace;-inkscape-font-specification:monospace"
     id="path1993" />
  <path
     d="m 204.7118,147.88171 h 1.23186 l 1.31986,6.12549 1.08296,-3.91219 h 1.06266 l 1.0965,3.91219 1.31986,-6.12549 h 1.23186 l -1.77334,7.58072 h -1.19126 l -1.21156,-4.15586 -1.2048,4.15586 h -1.19126 z"
     style="font-family:monospace;-inkscape-font-specification:monospace"
     id="path1995" />
  <path
     d="m 213.65299,148.9579 v -1.23187 l 7.15431,2.82924 v 1.12357 l -7.15431,2.82923 v -1.23863 l 5.75323,-2.14562 z"
     style="font-family:monospace;-inkscape-font-specification:monospace"
     id="path1997" />
  <path
     d="m 3.8225448,162.81981 -5.7532302,2.16592 5.7532302,2.14561 v 1.23864 l -7.1543109,-2.82923 v -1.12358 l 7.1543109,-2.82923 z"
     style="font-family:monospace;-inkscape-font-specification:monospace"
     id="path1999" />
  <path
     d="m 10.435375,159.21896 h 1.286016 l -5.3200457,11.3914 H 5.1085607 Z"
     style="font-family:monospace;-inkscape-font-specification:monospace"
     id="path2001" />
  <path
     d="m 17.339251,162.51522 q 0.230129,-0.48733 0.582091,-0.71746 0.358731,-0.2369 0.859601,-0.2369 0.913748,0 1.286016,0.7107 0.379036,0.70392 0.379036,2.66002 v 4.39276 h -1.137109 v -4.33861 q 0,-1.60414 -0.18275,-1.98994 -0.175981,-0.39258 -0.649776,-0.39258 -0.541481,0 -0.744536,0.41965 -0.196286,0.41288 -0.196286,1.96287 v 4.33861 h -1.137109 v -4.33861 q 0,-1.62444 -0.196287,-2.00348 -0.189518,-0.37904 -0.690388,-0.37904 -0.494101,0 -0.690387,0.41965 -0.189519,0.41288 -0.189519,1.96287 v 4.33861 h -1.13034 v -7.58073 h 1.13034 v 0.64978 q 0.223361,-0.40611 0.555018,-0.61593 0.338425,-0.2166 0.764841,-0.2166 0.514407,0 0.852832,0.2369 0.345194,0.2369 0.534712,0.71746 z"
     style="font-family:monospace;-inkscape-font-specification:monospace"
     id="path2003" />
  <path
     d="m 27.695065,162.00759 v 1.21833 q -0.534712,-0.31135 -1.076193,-0.46703 -0.54148,-0.15568 -1.103266,-0.15568 -0.846063,0 -1.265711,0.27751 -0.412879,0.27074 -0.412879,0.83253 0,0.50764 0.311352,0.75807 0.311351,0.25044 1.549988,0.48733 l 0.500869,0.0948 q 0.927285,0.17598 1.401081,0.70393 0.480564,0.52794 0.480564,1.374 0,1.12358 -0.798684,1.75982 -0.798684,0.62947 -2.22007,0.62947 -0.561786,0 -1.17772,-0.12184 -0.615934,-0.11506 -1.333396,-0.35196 v -1.28601 q 0.697156,0.35873 1.333396,0.54148 0.63624,0.17598 1.204794,0.17598 0.825758,0 1.279248,-0.33166 0.45349,-0.33842 0.45349,-0.94082 0,-0.86637 -1.658284,-1.19803 l -0.05415,-0.0135 -0.467027,-0.0948 q -1.076193,-0.20983 -1.570294,-0.70393 -0.494101,-0.50087 -0.494101,-1.36047 0,-1.08973 0.737767,-1.67859 0.737768,-0.59563 2.105006,-0.59563 0.609165,0 1.170951,0.11507 0.561786,0.1083 1.103267,0.33166 z"
     style="font-family:monospace;-inkscape-font-specification:monospace"
     id="path2005" />
  <path
     d="m 30.774735,166.45449 v -4.69734 h 1.245405 v 4.69734 q 0,1.02205 0.358731,1.50261 0.365499,0.48057 1.123572,0.48057 0.879906,0 1.346932,-0.61594 0.467027,-0.6227 0.467027,-1.78011 v -4.28447 h 1.252174 v 7.56719 h -1.252174 v -1.13711 q -0.331656,0.65655 -0.906979,0.99497 -0.568555,0.33843 -1.333396,0.33843 -1.164183,0 -1.732738,-0.75808 -0.568554,-0.76484 -0.568554,-2.30806 z"
     style="font-family:monospace;-inkscape-font-specification:monospace"
     id="path2007" />
  <path
     d="m 40.338632,168.36998 v 3.83774 h -1.252174 v -10.46411 h 1.252174 v 0.9679 q 0.311351,-0.56179 0.825757,-0.85283 0.521175,-0.29782 1.198026,-0.29782 1.374007,0 2.152385,1.06266 0.785147,1.06266 0.785147,2.9443 0,1.8478 -0.785147,2.90369 -0.785147,1.04912 -2.152385,1.04912 -0.690388,0 -1.211563,-0.29105 -0.514406,-0.29781 -0.81222,-0.8596 z m 3.654993,-2.82923 q 0,-1.44846 -0.460258,-2.18623 -0.45349,-0.73777 -1.353702,-0.73777 -0.906979,0 -1.374006,0.74454 -0.467027,0.73776 -0.467027,2.17946 0,1.43492 0.467027,2.17945 0.467027,0.74454 1.374006,0.74454 0.900212,0 1.353702,-0.73777 0.460258,-0.73776 0.460258,-2.18622 z"
     style="font-family:monospace;-inkscape-font-specification:monospace"
     id="path2009" />
  <path
     d="m 46.74164,162.81981 v -1.23187 l 7.154311,2.82923 v 1.12358 l -7.154311,2.82923 v -1.23864 l 5.75323,-2.14561 z"
     style="font-family:monospace;-inkscape-font-specification:monospace"
     id="path2011" />
  <path
     d="m 62.241521,162.81981 -5.753231,2.16592 5.753231,2.14561 v 1.23864 l -7.154311,-2.82923 v -1.12358 l 7.154311,-2.82923 z"
     style="font-family:monospace;-inkscape-font-specification:monospace"
     id="path2013" />
  <path
     d="m 67.412657,162.51522 q 0.230129,-0.48733 0.582092,-0.71746 0.35873,-0.2369 0.8596,-0.2369 0.913748,0 1.286016,0.7107 0.379036,0.70392 0.379036,2.66002 v 4.39276 h -1.137109 v -4.33861 q 0,-1.60414 -0.182749,-1.98994 -0.175981,-0.39258 -0.649777,-0.39258 -0.54148,0 -0.744536,0.41965 -0.196286,0.41288 -0.196286,1.96287 v 4.33861 h -1.137109 v -4.33861 q 0,-1.62444 -0.196287,-2.00348 -0.189518,-0.37904 -0.690388,-0.37904 -0.4941,0 -0.690387,0.41965 -0.189518,0.41288 -0.189518,1.96287 v 4.33861 h -1.130341 v -7.58073 h 1.130341 v 0.64978 q 0.22336,-0.40611 0.555017,-0.61593 0.338425,-0.2166 0.764841,-0.2166 0.514407,0 0.852832,0.2369 0.345194,0.2369 0.534712,0.71746 z"
     style="font-family:monospace;-inkscape-font-specification:monospace"
     id="path2015" />
  <path
     d="m 75.352113,162.61675 q -0.947591,0 -1.434924,0.73777 -0.487332,0.73777 -0.487332,2.18623 0,1.44169 0.487332,2.18622 0.487333,0.73777 1.434924,0.73777 0.954359,0 1.441691,-0.73777 0.487333,-0.74453 0.487333,-2.18622 0,-1.44846 -0.487333,-2.18623 -0.487332,-0.73777 -1.441691,-0.73777 z m 0,-1.05589 q 1.577061,0 2.409588,1.02205 0.839294,1.02204 0.839294,2.95784 0,1.94256 -0.832526,2.9646 -0.832526,1.01528 -2.416356,1.01528 -1.577062,0 -2.409589,-1.01528 -0.832526,-1.02204 -0.832526,-2.9646 0,-1.9358 0.832526,-2.95784 0.832527,-1.02205 2.409589,-1.02205 z"
     style="font-family:monospace;-inkscape-font-specification:monospace"
     id="path2017" />
  <path
     d="m 80.123907,162.81981 v -1.23187 l 7.154311,2.82923 v 1.12358 l -7.154311,2.82923 v -1.23864 l 5.75323,-2.14561 z"
     style="font-family:monospace;-inkscape-font-specification:monospace"
     id="path2019" />
  <path
     d="m 92.611806,161.39842 v 3.00522 h 3.011985 v 1.15064 h -3.011985 v 3.00522 h -1.137109 v -3.00522 h -3.005216 v -1.15064 h 3.005216 v -3.00522 z"
     style="font-family:monospace;-inkscape-font-specification:monospace"
     id="path2021" />
  <path
     d="m 103.96936,162.81981 -5.753233,2.16592 5.753233,2.14561 v 1.23864 l -7.154314,-2.82923 v -1.12358 l 7.154314,-2.82923 z"
     style="font-family:monospace;-inkscape-font-specification:monospace"
     id="path2023" />
  <path
     d="m 110.58219,159.21896 h 1.28601 l -5.32004,11.3914 h -1.29279 z"
     style="font-family:monospace;-inkscape-font-specification:monospace"
     id="path2025" />
  <path
     d="m 117.48607,162.51522 q 0.23013,-0.48733 0.58209,-0.71746 0.35873,-0.2369 0.8596,-0.2369 0.91375,0 1.28602,0.7107 0.37903,0.70392 0.37903,2.66002 v 4.39276 h -1.13711 v -4.33861 q 0,-1.60414 -0.18275,-1.98994 -0.17598,-0.39258 -0.64977,-0.39258 -0.54148,0 -0.74454,0.41965 -0.19629,0.41288 -0.19629,1.96287 v 4.33861 h -1.13711 v -4.33861 q 0,-1.62444 -0.19628,-2.00348 -0.18952,-0.37904 -0.69039,-0.37904 -0.4941,0 -0.69039,0.41965 -0.18952,0.41288 -0.18952,1.96287 v 4.33861 h -1.13034 v -7.58073 h 1.13034 v 0.64978 q 0.22337,-0.40611 0.55502,-0.61593 0.33843,-0.2166 0.76484,-0.2166 0.51441,0 0.85284,0.2369 0.34519,0.2369 0.53471,0.71746 z"
     style="font-family:monospace;-inkscape-font-specification:monospace"
     id="path2027" />
  <path
     d="m 125.42552,162.61675 q -0.94759,0 -1.43492,0.73777 -0.48733,0.73777 -0.48733,2.18623 0,1.44169 0.48733,2.18622 0.48733,0.73777 1.43492,0.73777 0.95436,0 1.44169,-0.73777 0.48734,-0.74453 0.48734,-2.18622 0,-1.44846 -0.48734,-2.18623 -0.48733,-0.73777 -1.44169,-0.73777 z m 0,-1.05589 q 1.57706,0 2.40959,1.02205 0.8393,1.02204 0.8393,2.95784 0,1.94256 -0.83253,2.9646 -0.83253,1.01528 -2.41636,1.01528 -1.57706,0 -2.40959,-1.01528 -0.83252,-1.02204 -0.83252,-2.9646 0,-1.9358 0.83252,-2.95784 0.83253,-1.02205 2.40959,-1.02205 z"
     style="font-family:monospace;-inkscape-font-specification:monospace"
     id="path2029" />
  <path
     d="m 130.19732,162.81981 v -1.23187 l 7.15431,2.82923 v 1.12358 l -7.15431,2.82923 v -1.23864 l 5.75323,-2.14561 z"
     style="font-family:monospace;-inkscape-font-specification:monospace"
     id="path2031" />
  <path
     d="m 145.69719,162.81981 -5.75323,2.16592 5.75323,2.14561 v 1.23864 l -7.15431,-2.82923 v -1.12358 l 7.15431,-2.82923 z"
     style="font-family:monospace;-inkscape-font-specification:monospace"
     id="path2033" />
  <path
     d="m 150.86833,162.51522 q 0.23013,-0.48733 0.58209,-0.71746 0.35873,-0.2369 0.8596,-0.2369 0.91375,0 1.28602,0.7107 0.37903,0.70392 0.37903,2.66002 v 4.39276 h -1.1371 v -4.33861 q 0,-1.60414 -0.18275,-1.98994 -0.17599,-0.39258 -0.64978,-0.39258 -0.54148,0 -0.74454,0.41965 -0.19628,0.41288 -0.19628,1.96287 v 4.33861 h -1.13711 v -4.33861 q 0,-1.62444 -0.19629,-2.00348 -0.18952,-0.37904 -0.69039,-0.37904 -0.4941,0 -0.69038,0.41965 -0.18952,0.41288 -0.18952,1.96287 v 4.33861 h -1.13034 v -7.58073 h 1.13034 v 0.64978 q 0.22336,-0.40611 0.55502,-0.61593 0.33842,-0.2166 0.76484,-0.2166 0.5144,0 0.85283,0.2369 0.34519,0.2369 0.53471,0.71746 z"
     style="font-family:monospace;-inkscape-font-specification:monospace"
     id="path2035" />
  <path
     d="m 161.75209,164.627 v 4.69734 h -1.25218 V 164.627 q 0,-1.02205 -0.35873,-1.50261 -0.35873,-0.48056 -1.12357,-0.48056 -0.87314,0 -1.34693,0.6227 -0.46703,0.61593 -0.46703,1.77335 v 4.28446 h -1.24541 v -7.58073 h 1.24541 v 1.13711 q 0.33166,-0.64977 0.90021,-0.98143 0.56856,-0.33843 1.34693,-0.33843 1.15742,0 1.72597,0.76485 0.57533,0.75807 0.57533,2.30129 z"
     style="font-family:monospace;-inkscape-font-specification:monospace"
     id="path2037" />
  <path
     d="m 163.57958,162.81981 v -1.23187 l 7.15431,2.82923 v 1.12358 l -7.15431,2.82923 v -1.23864 l 5.75323,-2.14561 z"
     style="font-family:monospace;-inkscape-font-specification:monospace"
     id="path2039" />
  <path
     d="m 173.15703,168.17369 h 2.12531 v -7.72286 l -2.28775,0.51441 v -1.24541 l 2.27421,-0.50087 h 1.36724 v 8.95473 h 2.09824 v 1.15065 h -5.57725 z"
     style="font-family:monospace;-inkscape-font-specification:monospace"
     id="path2041" />
  <path
     d="m 187.42504,162.81981 -5.75323,2.16592 5.75323,2.14561 v 1.23864 l -7.15431,-2.82923 v -1.12358 l 7.15431,-2.82923 z"
     style="font-family:monospace;-inkscape-font-specification:monospace"
     id="path2043" />
  <path
     d="m 194.03787,159.21896 h 1.28601 l -5.32004,11.3914 h -1.29279 z"
     style="font-family:monospace;-inkscape-font-specification:monospace"
     id="path2045" />
  <path
     d="m 200.94174,162.51522 q 0.23013,-0.48733 0.58209,-0.71746 0.35873,-0.2369 0.8596,-0.2369 0.91375,0 1.28602,0.7107 0.37903,0.70392 0.37903,2.66002 v 4.39276 h -1.1371 v -4.33861 q 0,-1.60414 -0.18275,-1.98994 -0.17599,-0.39258 -0.64978,-0.39258 -0.54148,0 -0.74454,0.41965 -0.19628,0.41288 -0.19628,1.96287 v 4.33861 h -1.13711 v -4.33861 q 0,-1.62444 -0.19629,-2.00348 -0.18952,-0.37904 -0.69039,-0.37904 -0.4941,0 -0.69038,0.41965 -0.18952,0.41288 -0.18952,1.96287 v 4.33861 H 197.104 v -7.58073 h 1.13034 v 0.64978 q 0.22336,-0.40611 0.55502,-0.61593 0.33842,-0.2166 0.76484,-0.2166 0.5144,0 0.85283,0.2369 0.34519,0.2369 0.53471,0.71746 z"
     style="font-family:monospace;-inkscape-font-specification:monospace"
     id="path2047" />
  <path
     d="m 211.8255,164.627 v 4.69734 h -1.25218 V 164.627 q 0,-1.02205 -0.35873,-1.50261 -0.35873,-0.48056 -1.12357,-0.48056 -0.87314,0 -1.34693,0.6227 -0.46703,0.61593 -0.46703,1.77335 v 4.28446 h -1.24541 v -7.58073 h 1.24541 v 1.13711 q 0.33166,-0.64977 0.90021,-0.98143 0.56856,-0.33843 1.34693,-0.33843 1.15742,0 1.72597,0.76485 0.57533,0.75807 0.57533,2.30129 z"
     style="font-family:monospace;-inkscape-font-specification:monospace"
     id="path2049" />
  <path
     d="m 213.65299,162.81981 v -1.23187 l 7.15431,2.82923 v 1.12358 l -7.15431,2.82923 v -1.23864 l 5.75323,-2.14561 z"
     style="font-family:monospace;-inkscape-font-specification:monospace"
     id="path2051" />
  <path
     d="m 3.8225448,176.68171 -5.7532302,2.16593 5.7532302,2.14561 v 1.23864 l -7.1543109,-2.82924 v -1.12357 l 7.1543109,-2.82923 z"
     style="font-family:monospace;-inkscape-font-specification:monospace"
     id="path2053" />
  <path
     d="m 8.9936831,176.37713 q 0.2301292,-0.48733 0.5820916,-0.71746 0.3587308,-0.2369 0.8596003,-0.2369 0.913748,0 1.286016,0.7107 0.379036,0.70392 0.379036,2.66002 v 4.39276 h -1.137109 v -4.33861 q 0,-1.60414 -0.182749,-1.98994 -0.175981,-0.39258 -0.649777,-0.39258 -0.5414803,0 -0.7445355,0.41965 -0.1962867,0.41288 -0.1962867,1.96287 v 4.33861 h -1.137109 v -4.33861 q 0,-1.62445 -0.1962867,-2.00348 -0.1895181,-0.37904 -0.6903876,-0.37904 -0.4941009,0 -0.6903876,0.41965 -0.1895182,0.41288 -0.1895182,1.96287 v 4.33861 H 5.1559402 v -7.58073 h 1.1303405 v 0.64978 q 0.2233607,-0.40611 0.5550175,-0.61594 0.3384253,-0.21659 0.7648412,-0.21659 0.5144065,0 0.8528318,0.2369 0.3451938,0.2369 0.5347119,0.71746 z"
     style="font-family:monospace;-inkscape-font-specification:monospace"
     id="path2055" />
  <path
     d="m 16.93314,176.47866 q -0.94759,0 -1.434923,0.73777 -0.487332,0.73776 -0.487332,2.18622 0,1.4417 0.487332,2.18623 0.487333,0.73777 1.434923,0.73777 0.95436,0 1.441692,-0.73777 0.487333,-0.74453 0.487333,-2.18623 0,-1.44846 -0.487333,-2.18622 -0.487332,-0.73777 -1.441692,-0.73777 z m 0,-1.05589 q 1.577062,0 2.409589,1.02205 0.839294,1.02204 0.839294,2.95783 0,1.94257 -0.832526,2.96461 -0.832526,1.01528 -2.416357,1.01528 -1.577061,0 -2.409588,-1.01528 -0.832526,-1.02204 -0.832526,-2.96461 0,-1.93579 0.832526,-2.95783 0.832527,-1.02205 2.409588,-1.02205 z"
     style="font-family:monospace;-inkscape-font-specification:monospace"
     id="path2057" />
  <path
     d="m 21.704937,176.68171 v -1.23186 l 7.154311,2.82923 v 1.12357 l -7.154311,2.82924 v -1.23864 l 5.75323,-2.14561 z"
     style="font-family:monospace;-inkscape-font-specification:monospace"
     id="path2059" />
  <path
     d="m 30.050505,179.63955 h 7.154311 v 1.16418 h -7.154311 z m 0,-2.74801 h 7.154311 v 1.15064 h -7.154311 z"
     style="font-family:monospace;-inkscape-font-specification:monospace"
     id="path2061" />
  <path
     d="m 45.550381,176.68171 -5.75323,2.16593 5.75323,2.14561 v 1.23864 l -7.15431,-2.82924 v -1.12357 l 7.15431,-2.82923 z"
     style="font-family:monospace;-inkscape-font-specification:monospace"
     id="path2064" />
  <path
     d="m 52.163213,173.08087 h 1.286017 l -5.320046,11.39139 h -1.292785 z"
     style="font-family:monospace;-inkscape-font-specification:monospace"
     id="path2066" />
  <path
     d="m 59.067091,176.37713 q 0.230129,-0.48733 0.582092,-0.71746 0.358731,-0.2369 0.8596,-0.2369 0.913748,0 1.286016,0.7107 0.379037,0.70392 0.379037,2.66002 v 4.39276 h -1.137109 v -4.33861 q 0,-1.60414 -0.18275,-1.98994 -0.175981,-0.39258 -0.649777,-0.39258 -0.54148,0 -0.744535,0.41965 -0.196287,0.41288 -0.196287,1.96287 v 4.33861 h -1.137109 v -4.33861 q 0,-1.62445 -0.196287,-2.00348 -0.189518,-0.37904 -0.690387,-0.37904 -0.494101,0 -0.690388,0.41965 -0.189518,0.41288 -0.189518,1.96287 v 4.33861 h -1.130341 v -7.58073 h 1.130341 v 0.64978 q 0.223361,-0.40611 0.555017,-0.61594 0.338426,-0.21659 0.764842,-0.21659 0.514406,0 0.852831,0.2369 0.345194,0.2369 0.534712,0.71746 z"
     style="font-family:monospace;-inkscape-font-specification:monospace"
     id="path2068" />
  <path
     d="m 67.006547,176.47866 q -0.947591,0 -1.434924,0.73777 -0.487332,0.73776 -0.487332,2.18622 0,1.4417 0.487332,2.18623 0.487333,0.73777 1.434924,0.73777 0.954359,0 1.441691,-0.73777 0.487333,-0.74453 0.487333,-2.18623 0,-1.44846 -0.487333,-2.18622 -0.487332,-0.73777 -1.441691,-0.73777 z m 0,-1.05589 q 1.577062,0 2.409588,1.02205 0.839295,1.02204 0.839295,2.95783 0,1.94257 -0.832527,2.96461 -0.832526,1.01528 -2.416356,1.01528 -1.577062,0 -2.409588,-1.01528 -0.832527,-1.02204 -0.832527,-2.96461 0,-1.93579 0.832527,-2.95783 0.832526,-1.02205 2.409588,-1.02205 z"
     style="font-family:monospace;-inkscape-font-specification:monospace"
     id="path2070" />
  <path
     d="m 71.778341,176.68171 v -1.23186 l 7.154311,2.82923 v 1.12357 l -7.154311,2.82924 v -1.23864 l 5.75323,-2.14561 z"
     style="font-family:monospace;-inkscape-font-specification:monospace"
     id="path2072" />
  <path
     d="m 87.278218,176.68171 -5.75323,2.16593 5.75323,2.14561 v 1.23864 l -7.154311,-2.82924 v -1.12357 l 7.154311,-2.82923 z"
     style="font-family:monospace;-inkscape-font-specification:monospace"
     id="path2074" />
  <path
     d="m 92.449362,176.37713 q 0.230129,-0.48733 0.582092,-0.71746 0.35873,-0.2369 0.8596,-0.2369 0.913748,0 1.286016,0.7107 0.379036,0.70392 0.379036,2.66002 v 4.39276 h -1.137109 v -4.33861 q 0,-1.60414 -0.182749,-1.98994 -0.175981,-0.39258 -0.649777,-0.39258 -0.54148,0 -0.744536,0.41965 -0.196286,0.41288 -0.196286,1.96287 v 4.33861 H 91.50854 v -4.33861 q 0,-1.62445 -0.196287,-2.00348 -0.189518,-0.37904 -0.690388,-0.37904 -0.4941,0 -0.690387,0.41965 -0.189518,0.41288 -0.189518,1.96287 v 4.33861 h -1.130341 v -7.58073 h 1.130341 v 0.64978 q 0.22336,-0.40611 0.555017,-0.61594 0.338425,-0.21659 0.764841,-0.21659 0.514407,0 0.852832,0.2369 0.345194,0.2369 0.534712,0.71746 z"
     style="font-family:monospace;-inkscape-font-specification:monospace"
     id="path2076" />
  <path
     d="m 103.33312,178.48891 v 4.69734 h -1.25218 v -4.69734 q 0,-1.02205 -0.35873,-1.50261 -0.35873,-0.48057 -1.12357,-0.48057 -0.873136,0 -1.346931,0.62271 -0.467027,0.61593 -0.467027,1.77334 v 4.28447 h -1.245406 v -7.58073 h 1.245406 v 1.13711 q 0.331656,-0.64978 0.900211,-0.98143 0.568557,-0.33843 1.346937,-0.33843 1.15741,0 1.72596,0.76484 0.57533,0.75808 0.57533,2.3013 z"
     style="font-family:monospace;-inkscape-font-specification:monospace"
     id="path2078" />
  <path
     d="m 105.16061,176.68171 v -1.23186 l 7.15431,2.82923 v 1.12357 l -7.15431,2.82924 v -1.23864 l 5.75323,-2.14561 z"
     style="font-family:monospace;-inkscape-font-specification:monospace"
     id="path2080" />
  <path
     d="m 116.17975,178.10987 q 0,-0.37227 0.2572,-0.64301 0.26397,-0.27074 0.62947,-0.27074 0.37904,0 0.64978,0.27074 0.27074,0.27074 0.27074,0.64301 0,0.37904 -0.27074,0.64301 -0.26398,0.26397 -0.64978,0.26397 -0.37904,0 -0.63624,-0.2572 -0.25043,-0.25721 -0.25043,-0.64978 z m 0.90021,-4.12879 q -0.95436,0 -1.42816,1.02881 -0.46702,1.02882 -0.46702,3.13382 0,2.09824 0.46702,3.12705 0.4738,1.02881 1.42816,1.02881 0.96112,0 1.42815,-1.02881 0.4738,-1.02881 0.4738,-3.12705 0,-2.105 -0.4738,-3.13382 -0.46703,-1.02881 -1.42815,-1.02881 z m 0,-1.08296 q 1.61767,0 2.44343,1.32663 0.83252,1.32662 0.83252,3.91896 0,2.58557 -0.83252,3.9122 -0.82576,1.32663 -2.44343,1.32663 -1.61768,0 -2.44343,-1.32663 -0.82576,-1.32663 -0.82576,-3.9122 0,-2.59234 0.82576,-3.91896 0.82575,-1.32663 2.44343,-1.32663 z"
     style="font-family:monospace;-inkscape-font-specification:monospace"
     id="path2082" />
  <path
     d="m 129.00606,176.68171 -5.75323,2.16593 5.75323,2.14561 v 1.23864 l -7.15431,-2.82924 v -1.12357 l 7.15431,-2.82923 z"
     style="font-family:monospace;-inkscape-font-specification:monospace"
     id="path2084" />
  <path
     d="m 135.61889,173.08087 h 1.28602 l -5.32005,11.39139 h -1.29278 z"
     style="font-family:monospace;-inkscape-font-specification:monospace"
     id="path2086" />
  <path
     d="m 142.52276,176.37713 q 0.23013,-0.48733 0.5821,-0.71746 0.35873,-0.2369 0.8596,-0.2369 0.91374,0 1.28601,0.7107 0.37904,0.70392 0.37904,2.66002 v 4.39276 h -1.13711 v -4.33861 q 0,-1.60414 -0.18275,-1.98994 -0.17598,-0.39258 -0.64978,-0.39258 -0.54148,0 -0.74453,0.41965 -0.19629,0.41288 -0.19629,1.96287 v 4.33861 h -1.13711 v -4.33861 q 0,-1.62445 -0.19628,-2.00348 -0.18952,-0.37904 -0.69039,-0.37904 -0.4941,0 -0.69039,0.41965 -0.18952,0.41288 -0.18952,1.96287 v 4.33861 h -1.13034 v -7.58073 h 1.13034 v 0.64978 q 0.22336,-0.40611 0.55502,-0.61594 0.33842,-0.21659 0.76484,-0.21659 0.51441,0 0.85283,0.2369 0.3452,0.2369 0.53471,0.71746 z"
     style="font-family:monospace;-inkscape-font-specification:monospace"
     id="path2088" />
  <path
     d="m 153.40652,178.48891 v 4.69734 h -1.25217 v -4.69734 q 0,-1.02205 -0.35873,-1.50261 -0.35874,-0.48057 -1.12358,-0.48057 -0.87313,0 -1.34693,0.62271 -0.46703,0.61593 -0.46703,1.77334 v 4.28447 h -1.2454 v -7.58073 h 1.2454 v 1.13711 q 0.33166,-0.64978 0.90022,-0.98143 0.56855,-0.33843 1.34693,-0.33843 1.15741,0 1.72597,0.76484 0.57532,0.75808 0.57532,2.3013 z"
     style="font-family:monospace;-inkscape-font-specification:monospace"
     id="path2090" />
  <path
     d="m 155.23401,176.68171 v -1.23186 l 7.15432,2.82923 v 1.12357 l -7.15432,2.82924 v -1.23864 l 5.75323,-2.14561 z"
     style="font-family:monospace;-inkscape-font-specification:monospace"
     id="path2092" />
  <path
     d="m 170.73389,176.68171 -5.75323,2.16593 5.75323,2.14561 v 1.23864 l -7.15431,-2.82924 v -1.12357 l 7.15431,-2.82923 z"
     style="font-family:monospace;-inkscape-font-specification:monospace"
     id="path2094" />
  <path
     d="m 177.34673,173.08087 h 1.28602 l -5.32004,11.39139 h -1.29279 z"
     style="font-family:monospace;-inkscape-font-specification:monospace"
     id="path2096" />
  <path
     d="m 184.25061,176.37713 q 0.23013,-0.48733 0.58209,-0.71746 0.35873,-0.2369 0.8596,-0.2369 0.91375,0 1.28602,0.7107 0.37903,0.70392 0.37903,2.66002 v 4.39276 h -1.13711 v -4.33861 q 0,-1.60414 -0.18275,-1.98994 -0.17598,-0.39258 -0.64977,-0.39258 -0.54148,0 -0.74454,0.41965 -0.19628,0.41288 -0.19628,1.96287 v 4.33861 h -1.13711 v -4.33861 q 0,-1.62445 -0.19629,-2.00348 -0.18952,-0.37904 -0.69039,-0.37904 -0.4941,0 -0.69039,0.41965 -0.18951,0.41288 -0.18951,1.96287 v 4.33861 h -1.13034 v -7.58073 h 1.13034 v 0.64978 q 0.22336,-0.40611 0.55501,-0.61594 0.33843,-0.21659 0.76484,-0.21659 0.51441,0 0.85284,0.2369 0.34519,0.2369 0.53471,0.71746 z"
     style="font-family:monospace;-inkscape-font-specification:monospace"
     id="path2098" />
  <path
     d="m 192.77216,179.37558 h -0.41288 q -1.08973,0 -1.64475,0.3858 -0.54825,0.37904 -0.54825,1.13711 0,0.68362 0.41288,1.06266 0.41288,0.37904 1.14388,0.37904 1.02881,0 1.61767,-0.7107 0.58886,-0.71746 0.59563,-1.9764 v -0.27751 z m 2.41635,-0.51441 v 4.32508 h -1.25217 v -1.12357 q -0.39934,0.67685 -1.00851,1.00174 -0.6024,0.31812 -1.46876,0.31812 -1.15742,0 -1.84781,-0.64978 -0.69038,-0.65655 -0.69038,-1.75304 0,-1.26571 0.84606,-1.92226 0.85283,-0.65654 2.49758,-0.65654 h 1.67182 v -0.19629 q -0.007,-0.90698 -0.46026,-1.31309 -0.45349,-0.41288 -1.44846,-0.41288 -0.63624,0 -1.28602,0.18275 -0.64977,0.18275 -1.26571,0.53471 v -1.2454 q 0.69039,-0.26398 1.31986,-0.39258 0.63624,-0.13537 1.23187,-0.13537 0.94082,0 1.60414,0.27751 0.67008,0.27751 1.08296,0.83253 0.2572,0.33842 0.3655,0.83929 0.10829,0.4941 0.10829,1.48907 z"
     style="font-family:monospace;-inkscape-font-specification:monospace"
     id="path2100" />
  <path
     d="m 200.52209,173.45314 v 2.15238 h 2.82924 v 0.9679 h -2.82924 v 4.11525 q 0,0.83929 0.31812,1.17095 0.31812,0.33166 1.11004,0.33166 h 1.40108 v 0.99497 h -1.52292 q -1.40108,0 -1.9764,-0.56179 -0.57532,-0.56178 -0.57532,-1.93579 v -4.11525 h -2.02379 v -0.9679 h 2.02379 v -2.15238 z"
     style="font-family:monospace;-inkscape-font-specification:monospace"
     id="path2102" />
  <path
     d="m 211.8255,178.48891 v 4.69734 h -1.25218 v -4.69734 q 0,-1.02205 -0.35873,-1.50261 -0.35873,-0.48057 -1.12357,-0.48057 -0.87314,0 -1.34693,0.62271 -0.46703,0.61593 -0.46703,1.77334 v 4.28447 h -1.24541 v -10.5318 h 1.24541 v 4.08818 q 0.33166,-0.64978 0.90021,-0.98143 0.56856,-0.33843 1.34693,-0.33843 1.15742,0 1.72597,0.76484 0.57533,0.75808 0.57533,2.3013 z"
     style="font-family:monospace;-inkscape-font-specification:monospace"
     id="path2104" />
  <path
     d="m 213.65299,176.68171 v -1.23186 l 7.15431,2.82923 v 1.12357 l -7.15431,2.82924 v -1.23864 l 5.75323,-2.14561 z"
     style="font-family:monospace;-inkscape-font-specification:monospace"
     id="path2106" />
</g>
<g
   transform="matrix(5.5901588,0,0,5.5901588,-537.64988,-280.87237)"
   id="g1080"
   style="fill:#eceff4;fill-opacity:1;stroke-width:0.99997;stroke-miterlimit:4;stroke-dasharray:none">
  <g
     id="g5012"
     style="fill:#eceff4;fill-opacity:1;stroke-width:0.99997;stroke-miterlimit:4;stroke-dasharray:none">
    <g
       style="fill:#eceff4;fill-opacity:1;stroke-width:0.99997;stroke-miterlimit:4;stroke-dasharray:none"
       id="g7762">
      <g
         id="use3808"
         transform="translate(91.925003,81.962997)"
         style="fill:#eceff4;fill-opacity:1;stroke-width:0.99997;stroke-miterlimit:4;stroke-dasharray:none">
        <path
           style="fill:#eceff4;fill-opacity:1;stroke:none;stroke-width:0.99997;stroke-miterlimit:4;stroke-dasharray:none"
           d="m 1.859375,-2.296875 c 0.296875,0 1.03125,-0.03125 1.53125,-0.234375 0.703125,-0.296875 0.75,-0.890625 0.75,-1.03125 0,-0.4375 -0.375,-0.84375 -1.0625,-0.84375 -1.109375,0 -2.625,0.96875 -2.625,2.71875 0,1.015625 0.59375,1.796875 1.578125,1.796875 1.421875,0 2.25,-1.0625 2.25,-1.171875 0,-0.0625 -0.046875,-0.140625 -0.109375,-0.140625 -0.0625,0 -0.078125,0.03125 -0.140625,0.109375 -0.78125,0.984375 -1.875,0.984375 -1.984375,0.984375 -0.78125,0 -0.875,-0.84375 -0.875,-1.15625 0,-0.125 0.015625,-0.421875 0.15625,-1.03125 z m -0.46875,-0.21875 C 1.78125,-4.03125 2.8125,-4.1875 3.078125,-4.1875 c 0.453125,0 0.734375,0.296875 0.734375,0.625 0,1.046875 -1.59375,1.046875 -2.015625,1.046875 z m 0,0"
           id="path18316" />
      </g>
    </g>
    <g
       style="fill:#eceff4;fill-opacity:1;stroke-width:0.99997;stroke-miterlimit:4;stroke-dasharray:none"
       id="g623">
      <g
         id="use9665"
         transform="translate(96.564003,78.348)"
         style="fill:#eceff4;fill-opacity:1;stroke-width:0.99997;stroke-miterlimit:4;stroke-dasharray:none">
        <path
           style="fill:#eceff4;fill-opacity:1;stroke:none;stroke-width:0.99997;stroke-miterlimit:4;stroke-dasharray:none"
           d="m 2.265625,-4.359375 c 0,-0.109375 -0.09375,-0.265625 -0.28125,-0.265625 -0.1875,0 -0.390625,0.1875 -0.390625,0.390625 0,0.109375 0.078125,0.265625 0.28125,0.265625 0.1875,0 0.390625,-0.203125 0.390625,-0.390625 z M 0.84375,-0.8125 c -0.03125,0.09375 -0.0625,0.171875 -0.0625,0.296875 0,0.328125 0.265625,0.578125 0.65625,0.578125 0.6875,0 1,-0.953125 1,-1.0625 0,-0.09375 -0.09375,-0.09375 -0.109375,-0.09375 -0.09375,0 -0.109375,0.046875 -0.140625,0.125 -0.15625,0.5625 -0.453125,0.84375 -0.734375,0.84375 -0.140625,0 -0.171875,-0.09375 -0.171875,-0.25 0,-0.15625 0.046875,-0.28125 0.109375,-0.4375 C 1.46875,-1 1.546875,-1.1875 1.609375,-1.375 1.671875,-1.546875 1.9375,-2.171875 1.953125,-2.265625 1.984375,-2.328125 2,-2.40625 2,-2.484375 2,-2.8125 1.71875,-3.078125 1.34375,-3.078125 0.640625,-3.078125 0.328125,-2.125 0.328125,-2 c 0,0.078125 0.09375,0.078125 0.125,0.078125 0.09375,0 0.09375,-0.03125 0.125,-0.109375 C 0.75,-2.625 1.0625,-2.875 1.3125,-2.875 c 0.109375,0 0.171875,0.046875 0.171875,0.234375 0,0.171875 -0.03125,0.265625 -0.203125,0.703125 z m 0,0"
           id="path18320" />
      </g>
      <g
         id="use7697"
         transform="translate(99.382812,78.348)"
         style="fill:#eceff4;fill-opacity:1;stroke-width:0.99997;stroke-miterlimit:4;stroke-dasharray:none">
        <path
           style="fill:#eceff4;fill-opacity:1;stroke:none;stroke-width:0.99997;stroke-miterlimit:4;stroke-dasharray:none"
           d="M 2.171875,-2.53125 H 3 c -0.109375,0.421875 -0.265625,1.046875 -0.265625,1.609375 0,0.28125 0.046875,0.46875 0.078125,0.609375 0.109375,0.359375 0.203125,0.375 0.3125,0.375 0.171875,0 0.328125,-0.140625 0.328125,-0.3125 0,-0.046875 -0.015625,-0.078125 -0.046875,-0.140625 C 3.265625,-0.65625 3.140625,-1.046875 3.140625,-1.625 c 0,-0.125 0,-0.40625 0.09375,-0.90625 h 0.875 c 0.125,0 0.1875,0 0.265625,-0.046875 0.09375,-0.078125 0.109375,-0.1875 0.109375,-0.21875 C 4.484375,-3 4.3125,-3 4.1875,-3 h -2.625 c -0.28125,0 -0.484375,0.0625 -0.796875,0.359375 -0.1875,0.15625 -0.453125,0.53125 -0.453125,0.59375 0,0.078125 0.09375,0.078125 0.125,0.078125 0.078125,0 0.078125,-0.015625 0.125,-0.078125 C 0.90625,-2.53125 1.34375,-2.53125 1.5,-2.53125 h 0.421875 c -0.21875,0.765625 -0.59375,1.59375 -0.796875,2.015625 -0.046875,0.078125 -0.109375,0.234375 -0.140625,0.25 0,0.03125 -0.015625,0.0625 -0.015625,0.109375 0,0.109375 0.078125,0.21875 0.25,0.21875 0.265625,0 0.34375,-0.3125 0.515625,-0.9375 z m 0,0"
           id="path18324" />
      </g>
    </g>
    <g
       style="fill:#eceff4;fill-opacity:1;stroke-width:0.99997;stroke-miterlimit:4;stroke-dasharray:none"
       id="g1634">
      <g
         id="use7041"
         transform="translate(107.004,81.962997)"
         style="fill:#eceff4;fill-opacity:1;stroke-width:0.99997;stroke-miterlimit:4;stroke-dasharray:none">
        <path
           style="fill:#eceff4;fill-opacity:1;stroke:none;stroke-width:0.99997;stroke-miterlimit:4;stroke-dasharray:none"
           d="m 4.078125,-2.296875 h 2.78125 C 7,-2.296875 7.1875,-2.296875 7.1875,-2.5 7.1875,-2.6875 7,-2.6875 6.859375,-2.6875 h -2.78125 v -2.796875 c 0,-0.140625 0,-0.328125 -0.203125,-0.328125 -0.203125,0 -0.203125,0.1875 -0.203125,0.328125 V -2.6875 h -2.78125 c -0.140625,0 -0.328125,0 -0.328125,0.1875 0,0.203125 0.1875,0.203125 0.328125,0.203125 h 2.78125 V 0.5 c 0,0.140625 0,0.328125 0.203125,0.328125 0.203125,0 0.203125,-0.1875 0.203125,-0.328125 z m 0,0"
           id="path18328" />
      </g>
    </g>
    <g
       style="fill:#eceff4;fill-opacity:1;stroke-width:0.99997;stroke-miterlimit:4;stroke-dasharray:none"
       id="g4103">
      <g
         id="use440"
         transform="translate(116.96461,81.962997)"
         style="fill:#eceff4;fill-opacity:1;stroke-width:0.99997;stroke-miterlimit:4;stroke-dasharray:none">
        <path
           style="fill:#eceff4;fill-opacity:1;stroke:none;stroke-width:0.99997;stroke-miterlimit:4;stroke-dasharray:none"
           d="m 2.9375,-6.375 c 0,-0.25 0,-0.265625 -0.234375,-0.265625 C 2.078125,-6 1.203125,-6 0.890625,-6 v 0.3125 c 0.203125,0 0.78125,0 1.296875,-0.265625 v 5.171875 c 0,0.359375 -0.03125,0.46875 -0.921875,0.46875 h -0.3125 V 0 c 0.34375,-0.03125 1.203125,-0.03125 1.609375,-0.03125 0.390625,0 1.265625,0 1.609375,0.03125 v -0.3125 h -0.3125 c -0.90625,0 -0.921875,-0.109375 -0.921875,-0.46875 z m 0,0"
           id="path18332" />
      </g>
    </g>
    <g
       style="fill:#eceff4;fill-opacity:1;stroke-width:0.99997;stroke-miterlimit:4;stroke-dasharray:none"
       id="g4974">
      <g
         id="use8972"
         transform="translate(124.71551,81.962997)"
         style="fill:#eceff4;fill-opacity:1;stroke-width:0.99997;stroke-miterlimit:4;stroke-dasharray:none">
        <path
           style="fill:#eceff4;fill-opacity:1;stroke:none;stroke-width:0.99997;stroke-miterlimit:4;stroke-dasharray:none"
           d="m 6.84375,-3.265625 c 0.15625,0 0.34375,0 0.34375,-0.1875 C 7.1875,-3.65625 7,-3.65625 6.859375,-3.65625 h -5.96875 c -0.140625,0 -0.328125,0 -0.328125,0.203125 0,0.1875 0.1875,0.1875 0.328125,0.1875 z m 0.015625,1.9375 c 0.140625,0 0.328125,0 0.328125,-0.203125 0,-0.1875 -0.1875,-0.1875 -0.34375,-0.1875 H 0.890625 c -0.140625,0 -0.328125,0 -0.328125,0.1875 0,0.203125 0.1875,0.203125 0.328125,0.203125 z m 0,0"
           id="path18336" />
      </g>
    </g>
    <g
       style="fill:#eceff4;fill-opacity:1;stroke-width:0.99997;stroke-miterlimit:4;stroke-dasharray:none"
       id="g5370">
      <g
         id="use6876"
         transform="translate(135.23402,81.962997)"
         style="fill:#eceff4;fill-opacity:1;stroke-width:0.99997;stroke-miterlimit:4;stroke-dasharray:none">
        <path
           style="fill:#eceff4;fill-opacity:1;stroke:none;stroke-width:0.99997;stroke-miterlimit:4;stroke-dasharray:none"
           d="m 4.578125,-3.1875 c 0,-0.796875 -0.046875,-1.59375 -0.390625,-2.328125 -0.453125,-0.96875 -1.28125,-1.125 -1.6875,-1.125 -0.609375,0 -1.328125,0.265625 -1.75,1.1875 -0.3125,0.6875 -0.359375,1.46875 -0.359375,2.265625 0,0.75 0.03125,1.640625 0.453125,2.40625 0.421875,0.796875 1.15625,1 1.640625,1 0.53125,0 1.296875,-0.203125 1.734375,-1.15625 0.3125,-0.6875 0.359375,-1.46875 0.359375,-2.25 z M 2.484375,0 C 2.09375,0 1.5,-0.25 1.328125,-1.203125 1.21875,-1.796875 1.21875,-2.71875 1.21875,-3.3125 c 0,-0.640625 0,-1.296875 0.078125,-1.828125 0.1875,-1.1875 0.9375,-1.28125 1.1875,-1.28125 0.328125,0 0.984375,0.1875 1.171875,1.171875 0.109375,0.5625 0.109375,1.3125 0.109375,1.9375 0,0.75 0,1.421875 -0.109375,2.0625 C 3.5,-0.296875 2.9375,0 2.484375,0 Z m 0,0"
           id="path18340" />
      </g>
    </g>
  </g>
</g>


⠀⠀</g>
</svg>
